<svg width="1440" height="232" viewBox="0 0 1440 232" fill="none" xmlns="http://www.w3.org/2000/svg">
<g clip-path="url(#clip0_5528_10412)">
<rect width="1440" height="232" fill="#0040C1"/>
<rect width="1336" height="232" fill="url(#paint0_linear_5528_10412)"/>
<path opacity="0.5" d="M405.444 -70.5556L405.444 -153.444L322.556 -153.444L264 -212L205.444 -153.444L122.556 -153.444L122.556 -70.5556L64 -12L122.556 46.5557L122.556 129.444L205.444 129.444L264 188L322.556 129.444L405.444 129.444L405.444 46.5557L464 -11.9999L405.444 -70.5556ZM135.438 -50.3864C139.081 -49.0852 142.595 -47.784 146.238 -46.3526C154.436 -50.907 162.243 -55.9818 169.66 -61.5771C161.853 -65.2205 153.915 -68.4736 145.978 -71.4665L145.978 -130.022L201.15 -130.022C204.403 -121.174 208.177 -112.325 212.341 -103.867C217.936 -111.154 223.011 -118.962 227.565 -126.899C226.004 -130.543 224.573 -134.316 223.141 -137.96L255.672 -170.491C234.202 -97.3611 177.077 -40.2368 103.948 -18.8966L135.438 -50.3864ZM112.016 3.09432C192.302 -20.8484 255.022 -84.0885 278.184 -164.765L302.647 -140.302C275.061 -62.3578 214.033 -0.809346 136.349 27.4275L112.016 3.09432ZM391.651 27.4275C387.097 25.866 382.673 24.1744 378.118 22.3527C369.921 26.907 362.113 31.9818 354.696 37.5771C363.675 41.7411 372.783 45.5147 382.022 48.8979L382.022 106.282L324.247 106.282C308.502 64.1224 283.649 25.9961 251.248 -5.36368C245.522 -0.028609 239.537 5.04622 233.421 9.86079C264.521 39.3989 288.333 75.7034 303.037 116.042L278.574 140.375C265.692 97.1738 241.098 58.2668 207.656 28.0781C200.76 32.5023 193.603 36.6663 186.316 40.4398C219.628 68.5465 243.961 105.762 256.323 147.532L222.23 113.439C223.662 109.535 225.093 105.762 226.785 101.988C222.1 94.0508 217.025 86.5036 211.3 79.3468C207.136 88.0651 203.362 97.0436 199.979 106.152L145.718 106.152L145.718 48.8979C228.476 18.3188 293.538 -47.1333 323.727 -130.022L381.892 -130.022L381.892 -74.199C338.821 -58.8444 299.784 -33.9909 267.774 -1.32983C273.109 4.39561 278.314 10.2512 283.128 16.367C313.057 -14.6024 349.752 -38.0247 390.35 -52.3383L414.943 -27.7449C371.482 -15.3832 332.315 8.68968 301.606 41.7411C306.03 48.5075 310.194 55.5342 314.098 62.691C343.375 28.989 382.152 4.91612 425.223 -6.53476L391.651 27.4275Z" fill="#155EEF"/>
<path opacity="0.5" d="M749.444 157.444L749.444 74.5557L666.556 74.5557L608 16L549.444 74.5557L466.556 74.5556L466.556 157.444L408 216L466.556 274.556L466.556 357.444L549.444 357.444L608 416L666.556 357.444L749.444 357.444L749.444 274.556L808 216L749.444 157.444ZM479.438 177.614C483.081 178.915 486.595 180.216 490.238 181.647C498.436 177.093 506.243 172.018 513.66 166.423C505.853 162.779 497.915 159.526 489.978 156.534L489.978 97.9779L545.15 97.9779C548.403 106.826 552.177 115.675 556.341 124.133C561.936 116.846 567.011 109.038 571.565 101.101C570.004 97.4574 568.573 93.6838 567.141 90.0404L599.672 57.5095C578.202 130.639 521.077 187.763 447.948 209.103L479.438 177.614ZM456.016 231.094C536.302 207.152 599.022 143.912 622.184 63.2349L646.647 87.6982C619.061 165.642 558.033 227.191 480.349 255.427L456.016 231.094ZM735.651 255.428C731.097 253.866 726.673 252.174 722.118 250.353C713.921 254.907 706.113 259.982 698.696 265.577C707.675 269.741 716.783 273.515 726.022 276.898L726.022 334.282L668.247 334.282C652.502 292.122 627.649 253.996 595.248 222.636C589.522 227.971 583.537 233.046 577.421 237.861C608.521 267.399 632.333 303.703 647.037 344.042L622.574 368.375C609.692 325.174 585.098 286.267 551.656 256.078C544.76 260.502 537.603 264.666 530.316 268.44C563.628 296.547 587.961 333.762 600.323 375.532L566.23 341.439C567.662 337.535 569.093 333.762 570.785 329.988C566.1 322.051 561.025 314.504 555.3 307.347C551.136 316.065 547.362 325.044 543.979 334.152L489.718 334.152L489.718 276.898C572.476 246.319 637.538 180.867 667.727 97.9779L725.892 97.9779L725.892 153.801C682.821 169.156 643.784 194.009 611.774 226.67C617.109 232.396 622.314 238.251 627.128 244.367C657.057 213.398 693.752 189.975 734.35 175.662L758.943 200.255C715.482 212.617 676.315 236.69 645.606 269.741C650.03 276.508 654.194 283.534 658.098 290.691C687.375 256.989 726.152 232.916 769.223 221.465L735.651 255.428Z" fill="#155EEF"/>
</g>
<defs>
<linearGradient id="paint0_linear_5528_10412" x1="1104.98" y1="-1.48383e-07" x2="1120.35" y2="251.302" gradientUnits="userSpaceOnUse">
<stop stop-color="#0040C1"/>
<stop offset="1" stop-color="#155EEF"/>
</linearGradient>
<clipPath id="clip0_5528_10412">
<rect width="1440" height="232" fill="white"/>
</clipPath>
</defs>
</svg>
