<svg width="153" height="64" viewBox="0 0 153 64" fill="none" xmlns="http://www.w3.org/2000/svg">
<g id="AYNA - Logo">
<g id="Group">
<path id="Vector" d="M54.6291 22.6311V9.3689H41.3674L31.9988 0L22.6303 9.3689H9.36855V22.6311L0 32L9.36855 41.3689V54.6311H22.6303L31.9988 64L41.3674 54.6311H54.6291V41.3689L63.9976 32L54.6291 22.6311ZM11.4296 25.8582C12.0126 26.0664 12.5747 26.2746 13.1576 26.5036C14.4692 25.7749 15.7183 24.9629 16.905 24.0677C15.6559 23.4847 14.3859 22.9642 13.116 22.4854V13.1165H21.9432C22.4637 14.5322 23.0675 15.948 23.7337 17.3012C24.6289 16.1353 25.4408 14.8861 26.1695 13.6161C25.9197 13.0332 25.6907 12.4294 25.4616 11.8465L30.6664 6.64151C27.2313 18.3422 18.0917 27.4821 6.39143 30.8966L11.4296 25.8582ZM7.68221 34.4151C20.5275 30.5843 30.5623 20.4658 34.2681 7.55758L38.1821 11.4717C33.7684 23.9427 24.0043 33.7905 11.5754 38.3084L7.68221 34.4151ZM52.4223 38.3084C51.6936 38.0586 50.9857 37.7879 50.2571 37.4964C48.9455 38.2251 47.6963 39.0371 46.5097 39.9323C47.9462 40.5986 49.4035 41.2023 50.8816 41.7437V50.9252H41.638C39.1189 44.1796 35.1425 38.0794 29.9585 33.0618C29.0425 33.9154 28.0848 34.7274 27.1063 35.4977C32.0821 40.2238 35.892 46.0325 38.2445 52.4867L34.3305 56.38C32.2695 49.4678 28.3347 43.2427 22.9842 38.4125C21.8808 39.1204 20.7357 39.7866 19.5699 40.3904C24.8995 44.8874 28.7927 50.8419 30.7705 57.5251L25.3159 52.0703C25.5449 51.4457 25.7739 50.8419 26.0446 50.2381C25.2951 48.9681 24.4832 47.7606 23.5671 46.6155C22.9009 48.0104 22.2972 49.447 21.7559 50.9044H13.0743V41.7437C26.3152 36.851 36.7247 26.3787 41.5547 13.1165H50.8608V22.0481C43.9697 24.5049 37.724 28.4815 32.6026 33.7072C33.4561 34.6233 34.2889 35.5602 35.0592 36.5387C39.8476 31.5836 45.7185 27.836 52.2141 25.5459L56.1489 29.4808C49.1953 31.4587 42.9288 35.3103 38.0155 40.5986C38.7234 41.6812 39.3896 42.8055 40.0141 43.9506C44.6984 38.5582 50.9025 34.7066 57.7936 32.8744L52.4223 38.3084Z" fill="#0040C1"/>
<path id="Vector_2" d="M43.8873 23.5677C42.7215 24.1715 41.5972 24.8377 40.473 25.5456C39.6611 24.8169 38.8908 24.0466 38.1621 23.2554C38.87 22.152 39.5362 21.0277 40.1399 19.8618C41.285 21.1943 42.5341 22.4226 43.8873 23.5677Z" fill="#0040C1"/>
<path id="Vector_3" d="M36.3491 28.4609C35.3706 29.2312 34.4129 30.0432 33.4761 30.8968C33.2471 30.6678 33.0181 30.4387 32.7891 30.2097C33.6426 29.2937 34.4546 28.336 35.2249 27.3574C35.5996 27.7322 35.9744 28.1069 36.3491 28.4609Z" fill="#0040C1"/>
<path id="Vector_4" d="M42.9281 33.3743C41.5749 34.332 40.2633 35.373 39.0349 36.4972L38.7227 36.1641C39.9718 35.0399 41.2834 33.978 42.6574 32.9995L42.9281 33.3743Z" fill="#0040C1"/>
<path id="Vector_5" d="M51.6319 28.6483C49.9456 29.3146 48.3217 30.0849 46.7603 30.9593L46.5312 30.5637C48.1135 29.6893 49.779 28.8982 51.4654 28.2319L51.6319 28.6483Z" fill="#0040C1"/>
<path id="Vector_6" d="M30.9585 43.347L30.5838 43.6177C29.6261 42.2644 28.5852 40.9528 27.4609 39.7244L27.794 39.4121C28.9391 40.6613 30.0009 41.9729 30.9585 43.347Z" fill="#0040C1"/>
<path id="Vector_7" d="M35.7253 52.1535L35.309 52.3201C34.6427 50.6545 33.8724 49.0097 32.998 47.4483L33.3936 47.2192C34.2888 48.8015 35.0591 50.4671 35.7253 52.1535Z" fill="#0040C1"/>
<path id="Vector_8" d="M35.6427 11.9506C34.9765 13.637 34.227 15.2817 33.3526 16.864L32.957 16.635C33.8106 15.0735 34.5809 13.4288 35.2263 11.7632L35.6427 11.9506Z" fill="#0040C1"/>
<path id="Vector_9" d="M30.6867 21.1113C29.8331 22.298 28.9171 23.4639 27.9386 24.5466L27.6055 24.2343C28.5631 23.1516 29.4792 22.0066 30.3119 20.8198L30.6867 21.1113Z" fill="#0040C1"/>
<path id="Vector_10" d="M24.6508 27.8776C23.4016 29.0018 22.09 30.0636 20.716 31.0422L20.4453 30.6674C21.7985 29.7097 23.1101 28.6687 24.3385 27.5444L24.6508 27.8776Z" fill="#0040C1"/>
<path id="Vector_11" d="M16.8428 33.4576C15.2398 34.332 13.5951 35.1232 11.9087 35.7894L11.7422 35.373C13.4077 34.7068 15.0524 33.9364 16.6138 33.062L16.8428 33.4576Z" fill="#0040C1"/>
</g>
<g id="Group_2">
<g id="Group_3">
<path id="Vector_12" d="M77.2806 41.4098H76.3437L75.8857 40.0981H73.8662L73.429 41.4098H72.4922L74.4075 36.2881H75.3652L77.2806 41.4098ZM75.6775 39.4111L74.9696 37.3707C74.9488 37.3083 74.928 37.2042 74.9072 37.0584H74.8864C74.8656 37.2042 74.8447 37.3083 74.8239 37.3707L74.1161 39.4111H75.6775Z" fill="#0040C1"/>
<path id="Vector_13" d="M81.6535 36.6628L78.8429 40.7019H81.6119V41.4306H77.6562V41.035L80.4668 37.0168H77.8644V36.2881H81.6535V36.6628Z" fill="#0040C1"/>
<path id="Vector_14" d="M82.1113 38.4747H86.0045C85.9628 37.9959 85.7963 37.6211 85.484 37.3297C85.1717 37.059 84.7762 36.9133 84.2765 36.9133C83.7144 36.9133 83.2356 37.059 82.8192 37.3505V36.5593C83.2356 36.3095 83.756 36.1846 84.3598 36.1846C85.1509 36.1846 85.7755 36.4136 86.2335 36.8716C86.6915 37.3297 86.9205 37.9751 86.9205 38.787C86.9205 39.5574 86.6915 40.2028 86.2335 40.7025C85.7755 41.2021 85.1717 41.452 84.4222 41.452C83.6728 41.452 83.1106 41.2021 82.6943 40.6816C82.2987 40.2236 82.1113 39.4741 82.1113 38.4747ZM86.0045 39.1826H83.0274C83.0274 39.6615 83.1731 40.0571 83.4229 40.3277C83.6728 40.6192 84.0267 40.7649 84.4639 40.7649C84.9011 40.7649 85.255 40.6192 85.5465 40.3277C85.7963 40.0571 85.9628 39.6823 86.0045 39.1826Z" fill="#0040C1"/>
<path id="Vector_15" d="M91.8117 41.4101H90.8124L90.0005 40.036C89.9172 39.911 89.8548 39.8069 89.7923 39.7028C89.7298 39.6196 89.6466 39.5363 89.5841 39.4738C89.5217 39.4114 89.4384 39.3697 89.3551 39.3489C89.2718 39.3281 89.1677 39.3073 89.0636 39.3073H88.7305V41.3892H87.877V36.2676H89.5633C89.8131 36.2676 90.0213 36.2884 90.2295 36.3509C90.4377 36.4133 90.6042 36.4966 90.75 36.6007C90.8957 36.7256 91.0206 36.8505 91.1039 37.0379C91.1872 37.2045 91.2288 37.4127 91.2288 37.6417C91.2288 37.8291 91.208 37.9956 91.1455 38.1414C91.0831 38.2871 91.0206 38.4328 90.9165 38.5369C90.8124 38.6619 90.7083 38.766 90.5626 38.8492C90.4169 38.9325 90.2711 38.995 90.0838 39.0366V39.0574C90.167 39.1199 90.2503 39.1615 90.3336 39.224C90.3961 39.2864 90.4585 39.3489 90.521 39.4114C90.5834 39.4738 90.6459 39.5571 90.7083 39.6404C90.7708 39.7237 90.8333 39.8278 90.9165 39.9319L91.8117 41.4101ZM88.6889 36.9754V38.641H89.3967C89.5217 38.641 89.6466 38.6202 89.7507 38.5786C89.8548 38.5369 89.9589 38.4745 90.0421 38.412C90.1254 38.3287 90.1879 38.2455 90.2295 38.1414C90.2711 38.0373 90.292 37.9123 90.292 37.7666C90.292 37.5168 90.2087 37.3294 90.0629 37.1836C89.9172 37.0379 89.6882 36.9754 89.3967 36.9754H88.6889Z" fill="#0040C1"/>
<path id="Vector_16" d="M92.3945 41.4098V36.2881H94.0184C94.5181 36.2881 94.9136 36.3922 95.2051 36.6212C95.4966 36.8294 95.6423 37.1209 95.6423 37.4748C95.6423 37.7663 95.559 38.0161 95.3925 38.2243C95.2259 38.4325 94.9969 38.5991 94.7054 38.6824V38.7032C95.0594 38.7448 95.33 38.8697 95.559 39.0988C95.7672 39.3278 95.8713 39.5984 95.8713 39.9524C95.8713 40.3896 95.7047 40.7435 95.3508 41.0142C94.9969 41.2848 94.5597 41.4306 94.0392 41.4306H92.3945V41.4098ZM93.2481 36.9543V38.4117H93.7894C94.0809 38.4117 94.3099 38.3492 94.4764 38.2035C94.643 38.0578 94.7263 37.8704 94.7263 37.6206C94.7263 37.1833 94.4348 36.9543 93.8519 36.9543H93.2481ZM93.2481 39.0988V40.7227H93.9768C94.2891 40.7227 94.5389 40.6394 94.7054 40.4937C94.872 40.3479 94.9553 40.1397 94.9553 39.8899C94.9553 39.3486 94.5805 39.0988 93.8519 39.0988H93.2481Z" fill="#0040C1"/>
<path id="Vector_17" d="M101.034 41.4098H100.098L99.6396 40.0981H97.6201L97.1829 41.4098H96.2461L98.1614 36.2881H99.1191L101.034 41.4098ZM99.4106 39.4111L98.7027 37.3707C98.6819 37.3083 98.6611 37.2042 98.6403 37.0584H98.6195C98.5986 37.2042 98.5778 37.3083 98.557 37.3707L97.8492 39.4111H99.4106Z" fill="#0040C1"/>
<path id="Vector_18" d="M104.761 36.2884L103.074 39.5571V41.4101H102.221V39.5571L100.576 36.2676H101.555L102.554 38.4745C102.575 38.4953 102.596 38.5994 102.658 38.766H102.679C102.7 38.6827 102.741 38.5994 102.804 38.4745L103.866 36.2676H104.761V36.2884Z" fill="#0040C1"/>
<path id="Vector_19" d="M108.821 41.2023C108.425 41.4105 107.946 41.4938 107.384 41.4938C106.635 41.4938 106.052 41.2648 105.594 40.7859C105.136 40.3071 104.928 39.7033 104.928 38.933C104.928 38.121 105.178 37.4548 105.677 36.9551C106.177 36.4554 106.822 36.2056 107.593 36.2056C108.092 36.2056 108.509 36.268 108.821 36.4138V37.2674C108.467 37.0592 108.092 36.9551 107.676 36.9551C107.114 36.9551 106.677 37.1425 106.323 37.4964C105.969 37.8503 105.802 38.3292 105.802 38.9121C105.802 39.4743 105.969 39.9323 106.281 40.2654C106.593 40.5985 107.03 40.7651 107.551 40.7651C108.03 40.7651 108.446 40.661 108.8 40.432V41.2023H108.821Z" fill="#0040C1"/>
<path id="Vector_20" d="M113.984 41.4098H113.047L112.589 40.0981H110.57L110.133 41.4098H109.217L111.132 36.2881H112.09L113.984 41.4098ZM112.381 39.4111L111.673 37.3707C111.653 37.3083 111.632 37.2042 111.611 37.0584H111.59C111.569 37.2042 111.549 37.3083 111.528 37.3707L110.82 39.4111H112.381Z" fill="#0040C1"/>
<path id="Vector_21" d="M119.043 41.4098H118.106L115.671 37.6414C115.608 37.5373 115.566 37.454 115.525 37.3499H115.504C115.525 37.454 115.525 37.7038 115.525 38.0578V41.4098H114.713V36.2881H115.712L118.086 39.9732C118.19 40.1189 118.252 40.223 118.273 40.2855H118.294C118.273 40.1397 118.252 39.9107 118.252 39.5984V36.2881H119.064V41.4098H119.043Z" fill="#0040C1"/>
<path id="Vector_22" d="M125.892 36.2884L124.206 39.5571V41.4101H123.373V39.5571L121.729 36.2676H122.707L123.706 38.4745C123.727 38.4953 123.748 38.5994 123.81 38.766H123.831C123.852 38.6827 123.894 38.5994 123.956 38.4745L125.018 36.2676H125.892V36.2884Z" fill="#0040C1"/>
<path id="Vector_23" d="M129.432 41.4098H126.559V36.2881H129.328V37.0168H127.412V38.4742H129.182V39.2029H127.412V40.7227H129.432V41.4098Z" fill="#0040C1"/>
<path id="Vector_24" d="M134.304 41.4101H133.305L132.493 40.036C132.409 39.911 132.347 39.8069 132.284 39.7028C132.222 39.6196 132.139 39.5363 132.076 39.4738C132.014 39.4114 131.931 39.3697 131.847 39.3489C131.764 39.3281 131.66 39.3073 131.556 39.3073H131.223V41.3892H130.369V36.2676H132.055C132.305 36.2676 132.514 36.2884 132.722 36.3509C132.93 36.4133 133.096 36.4966 133.242 36.6007C133.388 36.7256 133.513 36.8505 133.596 37.0379C133.679 37.2045 133.721 37.4127 133.721 37.6417C133.721 37.8291 133.7 37.9956 133.638 38.1414C133.575 38.2871 133.513 38.4328 133.409 38.5369C133.305 38.6619 133.201 38.766 133.055 38.8492C132.909 38.9325 132.763 38.995 132.576 39.0366V39.0574C132.659 39.1199 132.743 39.1615 132.826 39.224C132.888 39.2864 132.951 39.3489 133.013 39.4114C133.076 39.4738 133.138 39.5571 133.201 39.6404C133.263 39.7237 133.325 39.8278 133.409 39.9319L134.304 41.4101ZM131.181 36.9754V38.641H131.889C132.014 38.641 132.139 38.6202 132.243 38.5786C132.347 38.5369 132.451 38.4745 132.534 38.412C132.618 38.3287 132.68 38.2455 132.722 38.1414C132.763 38.0373 132.784 37.9123 132.784 37.7666C132.784 37.5168 132.701 37.3294 132.555 37.1836C132.409 37.0379 132.18 36.9754 131.889 36.9754H131.181Z" fill="#0040C1"/>
<path id="Vector_25" d="M138.843 39.3284C138.843 40.765 138.156 41.4936 136.803 41.4936C135.491 41.4936 134.846 40.8066 134.846 39.4117V36.2679H135.699V39.2243C135.699 40.2236 136.095 40.7233 136.865 40.7233C137.615 40.7233 137.989 40.2445 137.989 39.2659V36.2471H138.843V39.3284ZM136.095 35.8098C135.97 35.8098 135.866 35.7682 135.783 35.6849C135.699 35.6016 135.658 35.4975 135.658 35.3934C135.658 35.2685 135.699 35.1852 135.783 35.102C135.866 35.0187 135.97 34.9771 136.095 34.9771C136.22 34.9771 136.324 35.0187 136.407 35.102C136.49 35.1852 136.532 35.2685 136.532 35.3934C136.532 35.5184 136.49 35.6016 136.407 35.6849C136.303 35.7682 136.199 35.8098 136.095 35.8098ZM137.573 35.8098C137.448 35.8098 137.344 35.7682 137.261 35.6849C137.177 35.6016 137.136 35.4975 137.136 35.3934C137.136 35.2685 137.177 35.1852 137.261 35.102C137.344 35.0187 137.448 34.9771 137.573 34.9771C137.698 34.9771 137.802 35.0187 137.885 35.102C137.969 35.1852 138.01 35.2685 138.01 35.3934C138.01 35.5184 137.969 35.6016 137.885 35.6849C137.802 35.7682 137.698 35.8098 137.573 35.8098Z" fill="#0040C1"/>
<path id="Vector_26" d="M139.8 41.2021V40.3277C139.883 40.3902 139.967 40.4734 140.071 40.5151C140.175 40.5775 140.3 40.6192 140.425 40.6608C140.55 40.7025 140.675 40.7233 140.799 40.7441C140.924 40.7649 141.028 40.7857 141.133 40.7857C141.486 40.7857 141.757 40.7233 141.924 40.5984C142.09 40.4734 142.194 40.3069 142.194 40.0779C142.194 39.9529 142.173 39.8489 142.111 39.7656C142.049 39.6823 141.965 39.599 141.861 39.5157C141.757 39.4325 141.632 39.37 141.486 39.3075C141.341 39.2451 141.195 39.1618 141.028 39.0993C140.862 39.0161 140.695 38.912 140.55 38.8079C140.404 38.7038 140.279 38.5997 140.154 38.4956C140.05 38.3706 139.967 38.2457 139.883 38.1C139.821 37.9543 139.779 37.7877 139.779 37.5795C139.779 37.3297 139.842 37.1215 139.946 36.9549C140.05 36.7675 140.196 36.6218 140.383 36.5177C140.57 36.3928 140.758 36.3095 140.987 36.2679C141.216 36.2054 141.445 36.1846 141.674 36.1846C142.215 36.1846 142.611 36.247 142.84 36.372V37.2047C142.548 36.9965 142.173 36.8924 141.715 36.8924C141.591 36.8924 141.466 36.9133 141.341 36.9341C141.216 36.9549 141.112 36.9965 141.008 37.059C140.904 37.1215 140.82 37.1839 140.758 37.2672C140.695 37.3505 140.675 37.4546 140.675 37.5795C140.675 37.6836 140.695 37.7877 140.737 37.871C140.779 37.9543 140.862 38.0375 140.945 38.1C141.028 38.1624 141.153 38.2457 141.278 38.3082C141.403 38.3706 141.57 38.4539 141.736 38.5164C141.924 38.5997 142.09 38.7038 142.236 38.8079C142.402 38.912 142.527 39.0161 142.652 39.141C142.777 39.2659 142.861 39.4116 142.944 39.5574C143.006 39.7031 143.048 39.8905 143.048 40.0779C143.048 40.3277 142.985 40.5567 142.881 40.7441C142.777 40.9315 142.632 41.0772 142.465 41.1813C142.278 41.2854 142.09 41.3687 141.861 41.4312C141.632 41.4728 141.382 41.5144 141.133 41.5144C141.049 41.5144 140.945 41.5144 140.82 41.4936C140.695 41.4728 140.57 41.452 140.446 41.4312C140.321 41.4103 140.196 41.3687 140.071 41.3479C139.967 41.2854 139.883 41.2438 139.8 41.2021Z" fill="#0040C1"/>
<path id="Vector_27" d="M147.316 36.9963H145.838V41.3892H144.984V36.9963H143.506V36.2676H147.316V36.9963Z" fill="#0040C1"/>
<path id="Vector_28" d="M151.999 39.3284C151.999 40.765 151.312 41.4936 149.959 41.4936C148.647 41.4936 148.002 40.8066 148.002 39.4117V36.2679H148.856V39.2243C148.856 40.2236 149.251 40.7233 150.021 40.7233C150.771 40.7233 151.146 40.2445 151.146 39.2659V36.2471H151.999V39.3284ZM149.251 35.8098C149.126 35.8098 149.022 35.7682 148.939 35.6849C148.856 35.6016 148.814 35.4975 148.814 35.3934C148.814 35.2685 148.856 35.1852 148.939 35.102C149.022 35.0187 149.126 34.9771 149.251 34.9771C149.376 34.9771 149.48 35.0187 149.563 35.102C149.647 35.1852 149.688 35.2685 149.688 35.3934C149.688 35.5184 149.647 35.6016 149.563 35.6849C149.48 35.7682 149.376 35.8098 149.251 35.8098ZM150.75 35.8098C150.625 35.8098 150.521 35.7682 150.438 35.6849C150.355 35.6016 150.313 35.4975 150.313 35.3934C150.313 35.2685 150.355 35.1852 150.438 35.102C150.521 35.0187 150.625 34.9771 150.75 34.9771C150.875 34.9771 150.979 35.0187 151.062 35.102C151.146 35.1852 151.187 35.2685 151.187 35.3934C151.187 35.5184 151.146 35.6016 151.062 35.6849C150.979 35.7682 150.875 35.8098 150.75 35.8098Z" fill="#0040C1"/>
<path id="Vector_29" d="M79.4664 50.1964H78.5295L76.0729 46.428C76.0104 46.3239 75.9688 46.2406 75.9272 46.1365H75.9064C75.9272 46.2406 75.9272 46.4905 75.9272 46.8444V50.1964H75.1152V45.0747H76.1145L78.4879 48.7598C78.592 48.9055 78.6545 49.0096 78.6753 49.0721H78.6961C78.6753 48.9264 78.6545 48.6973 78.6545 48.3851V45.0747H79.4664V50.1964Z" fill="#0040C1"/>
<path id="Vector_30" d="M80.4043 47.2609H84.2974C84.2558 46.782 84.0893 46.4073 83.777 46.1158C83.4647 45.8451 83.0691 45.6994 82.5695 45.6994C82.0074 45.6994 81.5285 45.8451 81.1121 46.1366V45.3455C81.5285 45.0956 82.049 44.9707 82.6527 44.9707C83.4439 44.9707 84.0684 45.1997 84.5265 45.6578C84.9845 46.1158 85.2135 46.7612 85.2135 47.5732C85.2135 48.3435 84.9845 48.9889 84.5265 49.4886C84.0684 49.9883 83.4647 50.2381 82.7152 50.2381C81.9657 50.2381 81.4036 49.9883 80.9872 49.4678C80.5917 49.0097 80.4043 48.2602 80.4043 47.2609ZM84.2974 47.9688H81.3203C81.3203 48.4476 81.4661 48.8432 81.7159 49.1138C81.9657 49.4053 82.3196 49.5511 82.7568 49.5511C83.194 49.5511 83.548 49.4053 83.8394 49.1138C84.0893 48.8432 84.2558 48.4684 84.2974 47.9688Z" fill="#0040C1"/>
<path id="Vector_31" d="M88.2522 50.2796C87.8775 50.2796 87.5444 50.2172 87.2529 50.0922C86.9615 49.9673 86.6908 49.7799 86.4826 49.5717C86.2744 49.3427 86.1079 49.0721 85.983 48.7598C85.858 48.4475 85.8164 48.0935 85.8164 47.7188C85.8164 47.3024 85.8789 46.9276 86.0038 46.5945C86.1287 46.2614 86.2952 45.9699 86.5034 45.7409C86.7116 45.5119 86.9823 45.3245 87.2946 45.1996C87.6068 45.0747 87.9608 45.0122 88.3355 45.0122C88.6894 45.0122 89.0225 45.0747 89.314 45.1996C89.6055 45.3245 89.8553 45.5119 90.0635 45.7201C90.2717 45.9491 90.4382 46.2198 90.5423 46.532C90.6672 46.8443 90.7089 47.1983 90.7089 47.573C90.7089 48.0727 90.6256 48.5307 90.459 48.9055C90.2925 49.2803 90.0427 49.5926 89.7512 49.8216L91.2293 50.8834H89.9386L89.0225 50.1755C88.8976 50.2171 88.7727 50.238 88.6478 50.2588C88.5437 50.2588 88.398 50.2796 88.2522 50.2796ZM88.2939 45.7201C88.0649 45.7201 87.8567 45.7617 87.6485 45.8658C87.4611 45.9491 87.2946 46.0948 87.1488 46.2614C87.0031 46.428 86.899 46.6361 86.8157 46.8652C86.7324 47.0942 86.6908 47.3648 86.6908 47.6355C86.6908 47.927 86.7324 48.1768 86.7949 48.4058C86.8782 48.6348 86.9823 48.843 87.1072 49.0096C87.2529 49.1762 87.3987 49.3011 87.6068 49.4052C87.7942 49.4885 88.0024 49.5509 88.2314 49.5509C88.4812 49.5509 88.6894 49.5093 88.8976 49.426C89.085 49.3427 89.2515 49.2178 89.3973 49.0512C89.543 48.8847 89.6471 48.6973 89.7096 48.4683C89.7928 48.2393 89.8137 47.9686 89.8137 47.6771C89.8137 47.3648 89.772 47.0942 89.7096 46.8652C89.6471 46.6361 89.543 46.428 89.3973 46.2614C89.2724 46.0948 89.1058 45.9699 88.9184 45.8866C88.7519 45.7617 88.5437 45.7201 88.2939 45.7201Z" fill="#0040C1"/>
<path id="Vector_32" d="M94.5189 50.1964H91.6875V45.0747H92.5411V49.4885H94.5189V50.1964Z" fill="#0040C1"/>
<path id="Vector_33" d="M95.6852 44.5955C95.5603 44.5955 95.4562 44.5538 95.373 44.4706C95.2897 44.3873 95.248 44.2832 95.248 44.1791C95.248 44.075 95.2897 43.9709 95.373 43.8876C95.4562 43.8043 95.5603 43.7627 95.6852 43.7627C95.8102 43.7627 95.9143 43.8043 95.9975 43.8876C96.0808 43.9709 96.1224 44.0542 96.1224 44.1791C96.1224 44.2832 96.0808 44.3873 95.9975 44.4706C95.8934 44.5538 95.7893 44.5955 95.6852 44.5955ZM96.1224 50.196H95.248V45.0743H96.1224V50.196Z" fill="#0040C1"/>
<path id="Vector_34" d="M100.952 45.0745L99.2659 48.3432V50.1962H98.4123V48.3432L96.7676 45.0537H97.7461L98.7454 47.2606C98.7662 47.2814 98.787 47.3855 98.8495 47.5521H98.8703C98.8911 47.4688 98.9328 47.3855 98.9952 47.2606L100.057 45.0537H100.952V45.0745Z" fill="#0040C1"/>
<path id="Vector_35" d="M105.179 45.0745L103.492 48.3432V50.1962H102.639V48.3432L100.994 45.0537H101.973L102.972 47.2606C102.993 47.2814 103.014 47.3855 103.076 47.5521H103.097C103.118 47.4688 103.159 47.3855 103.222 47.2606L104.284 45.0537H105.179V45.0745Z" fill="#0040C1"/>
<path id="Vector_36" d="M109.488 50.1964H108.551L108.093 48.8847H106.073L105.636 50.1964H104.699L106.615 45.0747H107.572L109.488 50.1964ZM107.864 48.1977L107.156 46.1573C107.135 46.0949 107.114 45.9908 107.093 45.845H107.073C107.052 45.9908 107.031 46.0949 107.01 46.1573L106.302 48.1977H107.864Z" fill="#0040C1"/>
<path id="Vector_37" d="M112.964 45.7826H111.486V50.1964H110.632V45.8034H109.154V45.0747H112.964V45.7826Z" fill="#0040C1"/>
<path id="Vector_38" d="M119.939 50.1964H119.002L118.544 48.8847H116.524L116.087 50.1964H115.15L117.066 45.0747H118.023L119.939 50.1964ZM118.315 48.1977L117.607 46.1573C117.586 46.0949 117.565 45.9908 117.545 45.845H117.524C117.503 45.9908 117.482 46.0949 117.461 46.1573L116.753 48.1977H118.315Z" fill="#0040C1"/>
<path id="Vector_39" d="M124.561 49.8425C124.02 50.134 123.437 50.2797 122.77 50.2797C122.021 50.2797 121.396 50.0507 120.938 49.5719C120.459 49.093 120.23 48.4684 120.23 47.6981C120.23 46.9069 120.48 46.2615 121.001 45.741C121.521 45.2414 122.167 44.9707 122.958 44.9707C123.52 44.9707 123.999 45.054 124.394 45.2205V46.095C123.999 45.8243 123.541 45.6994 122.999 45.6994C122.458 45.6994 122 45.8868 121.667 46.2407C121.313 46.5946 121.146 47.0735 121.146 47.6356C121.146 48.2186 121.292 48.6766 121.605 49.0306C121.896 49.3637 122.312 49.5302 122.833 49.5302C123.187 49.5302 123.499 49.4678 123.749 49.322V48.1145H122.666V47.4066H124.602V49.8425H124.561Z" fill="#0040C1"/>
<path id="Vector_40" d="M128.537 50.1964H125.664V45.0747H128.433V45.8034H126.497V47.2608H128.266V47.9895H126.497V49.5093H128.516V50.1964H128.537Z" fill="#0040C1"/>
<path id="Vector_41" d="M133.783 50.1964H132.847L130.39 46.428C130.328 46.3239 130.286 46.2406 130.244 46.1365C130.265 46.2406 130.265 46.4905 130.265 46.8444V50.1964H129.453V45.0747H130.452L132.826 48.7598C132.93 48.9055 132.992 49.0096 133.013 49.0721H133.034C133.013 48.9264 132.992 48.6973 132.992 48.3851V45.0747H133.804V50.1964H133.783Z" fill="#0040C1"/>
<path id="Vector_42" d="M138.343 45.7826H136.865V50.1964H136.011V45.8034H134.533V45.0747H138.322V45.7826H138.343Z" fill="#0040C1"/>
<path id="Vector_43" d="M141.945 50.1964H139.113V45.0747H139.967V49.4885H141.945V50.1964Z" fill="#0040C1"/>
<path id="Vector_44" d="M143.09 44.5955C142.965 44.5955 142.861 44.5538 142.777 44.4706C142.694 44.3873 142.652 44.2832 142.652 44.1791C142.652 44.075 142.694 43.9709 142.777 43.8876C142.861 43.8043 142.965 43.7627 143.09 43.7627C143.214 43.7627 143.319 43.8043 143.402 43.8876C143.485 43.9709 143.527 44.0542 143.527 44.1791C143.527 44.2832 143.485 44.3873 143.402 44.4706C143.319 44.5538 143.214 44.5955 143.09 44.5955ZM143.548 50.196H142.673V45.0743H143.548V50.196Z" fill="#0040C1"/>
<path id="Vector_45" d="M148.377 45.0748L146.69 48.3227V50.1757H145.858V48.3227L144.213 45.0332H145.191L146.191 47.2401C146.212 47.2609 146.232 47.365 146.295 47.5316H146.316C146.336 47.4483 146.378 47.365 146.441 47.2401L147.502 45.0332H148.377V45.0748Z" fill="#0040C1"/>
<path id="Vector_46" d="M149.461 44.5955C149.336 44.5955 149.232 44.5538 149.148 44.4706C149.065 44.3873 149.023 44.2832 149.023 44.1791C149.023 44.075 149.065 43.9709 149.148 43.8876C149.232 43.8043 149.336 43.7627 149.461 43.7627C149.586 43.7627 149.69 43.8043 149.773 43.8876C149.856 43.9709 149.898 44.0542 149.898 44.1791C149.898 44.2832 149.856 44.3873 149.773 44.4706C149.69 44.5538 149.586 44.5955 149.461 44.5955ZM149.898 50.196H149.023V45.0743H149.898V50.196Z" fill="#0040C1"/>
</g>
<g id="Group_4">
<path id="Vector_47" d="M86.046 32.0424L85.2133 28.5655H79.5713L78.6761 32.0424H72.5137L79.03 13.1172H86.1085L92.2501 32.0424H86.046ZM82.4652 17.2395H82.3402C82.3194 17.4477 82.257 17.8016 82.1529 18.2805C82.0488 18.7593 81.5075 20.8413 80.5498 24.5056H84.1723L82.8607 19.3631C82.6525 18.5928 82.5276 17.8849 82.4652 17.2395Z" fill="#0040C1"/>
<path id="Vector_48" d="M104.118 25.4633V32.0424H98.4133V25.5466L92.584 13.1172H99.1212L101.161 19.0716C101.307 19.4672 101.411 19.8212 101.453 20.1335C101.515 20.4249 101.578 20.7372 101.64 21.0495H101.703C101.807 20.2584 101.953 19.6338 102.077 19.1966L104.097 13.138H110.134L104.118 25.4633Z" fill="#0040C1"/>
<path id="Vector_49" d="M125.227 32.0424L118.544 22.9025C118.024 22.1738 117.587 21.5284 117.254 20.9454H117.191C117.254 21.8823 117.274 22.9233 117.274 24.0892V32.0424H111.986V13.1172H117.378L123.77 21.799C123.853 21.9031 123.936 22.0489 124.061 22.2154C124.165 22.382 124.29 22.5277 124.394 22.6943C124.499 22.8608 124.623 23.0274 124.728 23.1731C124.832 23.3397 124.915 23.4646 124.957 23.5895H125.019C124.957 23.194 124.936 22.5277 124.936 21.5908V13.1172H130.245V32.0424H125.227Z" fill="#0040C1"/>
<path id="Vector_50" d="M145.818 32.0424L144.985 28.5655H139.343L138.448 32.0424H132.285L138.802 13.1172H145.88L152.022 32.0424H145.818ZM142.237 17.2395H142.112C142.091 17.4477 142.028 17.8016 141.924 18.2805C141.82 18.7593 141.279 20.8413 140.321 24.5056H143.944L142.632 19.3631C142.424 18.5928 142.299 17.8849 142.237 17.2395Z" fill="#0040C1"/>
</g>
</g>
</g>
</svg>
