<svg width="400" height="216" viewBox="0 0 400 216" fill="none" xmlns="http://www.w3.org/2000/svg">
<path opacity="0.5" d="M341.444 141.444L341.444 58.5557L258.556 58.5557L200 3.49691e-05L141.444 58.5557L58.5556 58.5556L58.5556 141.444L-3.49691e-05 200L58.5556 258.556L58.5556 341.444L141.444 341.444L200 400L258.556 341.444L341.444 341.444L341.444 258.556L400 200L341.444 141.444ZM71.4379 161.614C75.0813 162.915 78.5947 164.216 82.2381 165.647C90.4359 161.093 98.2433 156.018 105.66 150.423C97.853 146.779 89.9154 143.526 81.9779 140.534L81.9779 81.9779L137.15 81.9779C140.403 90.8263 144.177 99.6747 148.341 108.133C153.936 100.846 159.011 93.0384 163.565 85.1009C162.004 81.4574 160.573 77.6838 159.141 74.0404L191.672 41.5095C170.202 114.639 113.077 171.763 39.9479 193.103L71.4379 161.614ZM48.0156 215.094C128.302 191.152 191.022 127.912 214.184 47.2349L238.647 71.6982C211.061 149.642 150.033 211.191 72.3487 239.427L48.0156 215.094ZM327.651 239.428C323.097 237.866 318.673 236.174 314.118 234.353C305.921 238.907 298.113 243.982 290.696 249.577C299.675 253.741 308.783 257.515 318.022 260.898L318.022 318.282L260.247 318.282C244.502 276.122 219.649 237.996 187.248 206.636C181.522 211.971 175.537 217.046 169.421 221.861C200.521 251.399 224.333 287.703 239.037 328.042L214.574 352.375C201.692 309.174 177.098 270.267 143.656 240.078C136.76 244.502 129.603 248.666 122.316 252.44C155.628 280.547 179.961 317.762 192.323 359.532L158.23 325.439C159.662 321.535 161.093 317.762 162.785 313.988C158.1 306.051 153.025 298.504 147.3 291.347C143.136 300.065 139.362 309.044 135.979 318.152L81.7176 318.152L81.7176 260.898C164.476 230.319 229.538 164.867 259.727 81.9779L317.892 81.9779L317.892 137.801C274.821 153.156 235.784 178.009 203.774 210.67C209.109 216.396 214.314 222.251 219.128 228.367C249.057 197.398 285.752 173.975 326.35 159.662L350.943 184.255C307.482 196.617 268.315 220.69 237.606 253.741C242.03 260.508 246.194 267.534 250.098 274.691C279.375 240.989 318.152 216.916 361.223 205.465L327.651 239.428Z" fill="#155EEF"/>
</svg>
