<svg width="107" height="132" viewBox="0 0 107 132" fill="none" xmlns="http://www.w3.org/2000/svg">
<path id="Vector" d="M123.42 38.92L123.42 9.08005L93.58 9.08004L72.5 -12L51.42 9.08004L21.58 9.08003L21.58 38.92L0.499987 60L21.58 81.08L21.58 110.92L51.42 110.92L72.5 132L93.58 110.92L123.42 110.92L123.42 81.0801L144.5 60L123.42 38.92ZM26.2176 46.1809C27.5293 46.6493 28.7941 47.1178 30.1057 47.6331C33.0569 45.9935 35.8676 44.1666 38.5377 42.1523C35.7271 40.8406 32.8695 39.6695 30.012 38.5921L30.012 17.512L49.8741 17.512C51.0452 20.6975 52.4037 23.8829 53.9027 26.9278C55.917 24.3045 57.744 21.4938 59.3835 18.6363C58.8214 17.3247 58.3061 15.9662 57.7908 14.6545L69.502 2.94341C61.7726 29.27 41.2079 49.8348 14.8813 57.5172L26.2176 46.1809ZM17.7856 65.434C46.6887 56.8146 69.2677 34.0482 77.6061 5.00457L86.4128 13.8113C76.4818 41.8712 54.5117 64.0286 26.5455 74.1939L17.7856 65.434ZM118.454 74.1939C116.815 73.6318 115.222 73.0228 113.583 72.367C110.631 74.0065 107.821 75.8335 105.151 77.8478C108.383 79.3468 111.662 80.7053 114.988 81.9232L114.988 102.582L94.189 102.582C88.5208 87.4041 79.5735 73.6786 67.9092 62.3891C65.8481 64.3097 63.6932 66.1366 61.4915 67.8699C72.6874 78.5036 81.2599 91.5732 86.5533 106.095L77.7466 114.855C73.109 99.3026 64.2554 85.296 52.2163 74.4281C49.7336 76.0208 47.1571 77.5199 44.5338 78.8783C56.526 88.9968 65.2859 102.394 69.7362 117.431L57.4629 105.158C57.9782 103.753 58.4935 102.394 59.1025 101.036C57.4161 98.1783 55.5891 95.4613 53.528 92.8849C52.0289 96.0234 50.6704 99.2557 49.4525 102.535L29.9183 102.535L29.9183 81.9232C59.7114 70.9148 83.1337 47.352 94.0016 17.5121L114.941 17.5121L114.941 37.6083C99.4356 43.136 85.3822 52.0833 73.8585 63.8413C75.7791 65.9024 77.6529 68.0104 79.3861 70.2121C90.1604 59.0631 103.371 50.6311 117.986 45.4782L126.84 54.3318C111.194 58.7821 97.0934 67.4483 86.0381 79.3468C87.6308 81.7827 89.1298 84.3123 90.5351 86.8888C101.075 74.756 115.035 66.0898 130.54 61.9675L118.454 74.1939Z" fill="#EFF4FF" fill-opacity="0.4"/>
</svg>
