<svg width="166" height="72" viewBox="0 0 166 72" fill="none" xmlns="http://www.w3.org/2000/svg">
<g id="Logo">
<g id="AYNA - Logo">
<g id="Group">
<path id="Vector" d="M54.6291 26.6311V13.3689H41.3674L31.9988 4L22.6303 13.3689H9.36855V26.6311L0 36L9.36855 45.3689V58.6311H22.6303L31.9988 68L41.3674 58.6311H54.6291V45.3689L63.9976 36L54.6291 26.6311ZM11.4296 29.8582C12.0126 30.0664 12.5747 30.2746 13.1576 30.5036C14.4692 29.7749 15.7183 28.9629 16.905 28.0677C15.6559 27.4847 14.3859 26.9642 13.116 26.4854V17.1165H21.9432C22.4637 18.5322 23.0675 19.948 23.7337 21.3012C24.6289 20.1353 25.4408 18.8861 26.1695 17.6161C25.9197 17.0332 25.6907 16.4294 25.4616 15.8465L30.6664 10.6415C27.2313 22.3422 18.0917 31.4821 6.39143 34.8966L11.4296 29.8582ZM7.68221 38.4151C20.5275 34.5843 30.5623 24.4658 34.2681 11.5576L38.1821 15.4717C33.7684 27.9427 24.0043 37.7905 11.5754 42.3084L7.68221 38.4151ZM52.4223 42.3084C51.6936 42.0586 50.9857 41.7879 50.2571 41.4964C48.9455 42.2251 47.6963 43.0371 46.5097 43.9323C47.9462 44.5986 49.4035 45.2023 50.8816 45.7437V54.9252H41.638C39.1189 48.1796 35.1425 42.0794 29.9585 37.0618C29.0425 37.9154 28.0848 38.7274 27.1063 39.4977C32.0821 44.2238 35.892 50.0325 38.2445 56.4867L34.3305 60.38C32.2695 53.4678 28.3347 47.2427 22.9842 42.4125C21.8808 43.1204 20.7357 43.7866 19.5699 44.3904C24.8995 48.8874 28.7927 54.8419 30.7705 61.5251L25.3159 56.0703C25.5449 55.4457 25.7739 54.8419 26.0446 54.2381C25.2951 52.9681 24.4832 51.7606 23.5671 50.6155C22.9009 52.0104 22.2972 53.447 21.7559 54.9044H13.0743V45.7437C26.3152 40.851 36.7247 30.3787 41.5547 17.1165H50.8608V26.0481C43.9697 28.5049 37.724 32.4815 32.6026 37.7072C33.4561 38.6233 34.2889 39.5602 35.0592 40.5387C39.8476 35.5836 45.7185 31.836 52.2141 29.5459L56.1489 33.4808C49.1953 35.4587 42.9288 39.3103 38.0155 44.5986C38.7234 45.6812 39.3896 46.8055 40.0141 47.9506C44.6984 42.5582 50.9025 38.7066 57.7936 36.8744L52.4223 42.3084Z" fill="white"/>
<path id="Vector_2" d="M43.8873 27.5682C42.7215 28.172 41.5972 28.8382 40.473 29.5461C39.6611 28.8174 38.8908 28.0471 38.1621 27.2559C38.87 26.1525 39.5362 25.0282 40.1399 23.8623C41.285 25.1948 42.5341 26.4231 43.8873 27.5682Z" fill="white"/>
<path id="Vector_3" d="M36.3491 32.4609C35.3706 33.2312 34.4129 34.0432 33.4761 34.8968C33.2471 34.6678 33.0181 34.4387 32.7891 34.2097C33.6426 33.2937 34.4546 32.336 35.2249 31.3574C35.5996 31.7322 35.9744 32.1069 36.3491 32.4609Z" fill="white"/>
<path id="Vector_4" d="M42.9281 37.3738C41.5749 38.3315 40.2633 39.3725 39.0349 40.4967L38.7227 40.1636C39.9718 39.0394 41.2834 37.9776 42.6574 36.999L42.9281 37.3738Z" fill="white"/>
<path id="Vector_5" d="M51.6319 32.6478C49.9456 33.3141 48.3217 34.0844 46.7603 34.9588L46.5312 34.5633C48.1135 33.6888 49.779 32.8977 51.4654 32.2314L51.6319 32.6478Z" fill="white"/>
<path id="Vector_6" d="M30.9585 47.347L30.5838 47.6177C29.6261 46.2644 28.5852 44.9528 27.4609 43.7244L27.794 43.4121C28.9391 44.6613 30.0009 45.9729 30.9585 47.347Z" fill="white"/>
<path id="Vector_7" d="M35.7253 56.154L35.309 56.3206C34.6427 54.655 33.8724 53.0102 32.998 51.4487L33.3936 51.2197C34.2888 52.802 35.0591 54.4676 35.7253 56.154Z" fill="white"/>
<path id="Vector_8" d="M35.6427 15.9501C34.9765 17.6365 34.227 19.2812 33.3526 20.8635L32.957 20.6345C33.8106 19.073 34.5809 17.4283 35.2263 15.7627L35.6427 15.9501Z" fill="white"/>
<path id="Vector_9" d="M30.6867 25.1108C29.8331 26.2975 28.9171 27.4634 27.9386 28.5461L27.6055 28.2338C28.5631 27.1512 29.4792 26.0061 30.3119 24.8193L30.6867 25.1108Z" fill="white"/>
<path id="Vector_10" d="M24.6508 31.8771C23.4016 33.0013 22.09 34.0631 20.716 35.0417L20.4453 34.6669C21.7985 33.7092 23.1101 32.6682 24.3385 31.5439L24.6508 31.8771Z" fill="white"/>
<path id="Vector_11" d="M16.8428 37.4571C15.2398 38.3315 13.5951 39.1227 11.9087 39.7889L11.7422 39.3725C13.4077 38.7063 15.0524 37.936 16.6138 37.0615L16.8428 37.4571Z" fill="white"/>
</g>
<g id="Group_2">
<g id="Group_3">
<path id="Vector_12" d="M77.2806 45.4107H76.3437L75.8857 44.0991H73.8662L73.429 45.4107H72.4922L74.4075 40.2891H75.3652L77.2806 45.4107ZM75.6775 43.412L74.9696 41.3717C74.9488 41.3092 74.928 41.2051 74.9072 41.0594H74.8864C74.8656 41.2051 74.8447 41.3092 74.8239 41.3717L74.1161 43.412H75.6775Z" fill="white"/>
<path id="Vector_13" d="M81.6535 40.6638L78.8429 44.7029H81.6119V45.4315H77.6562V45.036L80.4668 41.0178H77.8644V40.2891H81.6535V40.6638Z" fill="white"/>
<path id="Vector_14" d="M82.1113 42.4757H86.0045C85.9628 41.9969 85.7963 41.6221 85.484 41.3306C85.1717 41.06 84.7762 40.9142 84.2765 40.9142C83.7144 40.9142 83.2356 41.06 82.8192 41.3515V40.5603C83.2356 40.3105 83.756 40.1855 84.3598 40.1855C85.1509 40.1855 85.7755 40.4146 86.2335 40.8726C86.6915 41.3306 86.9205 41.976 86.9205 42.788C86.9205 43.5584 86.6915 44.2038 86.2335 44.7034C85.7755 45.2031 85.1717 45.453 84.4222 45.453C83.6728 45.453 83.1106 45.2031 82.6943 44.6826C82.2987 44.2246 82.1113 43.4751 82.1113 42.4757ZM86.0045 43.1836H83.0274C83.0274 43.6625 83.1731 44.058 83.4229 44.3287C83.6728 44.6202 84.0267 44.7659 84.4639 44.7659C84.9011 44.7659 85.255 44.6202 85.5465 44.3287C85.7963 44.058 85.9628 43.6833 86.0045 43.1836Z" fill="white"/>
<path id="Vector_15" d="M91.8117 45.4101H90.8124L90.0005 44.036C89.9172 43.911 89.8548 43.8069 89.7923 43.7028C89.7298 43.6196 89.6466 43.5363 89.5841 43.4738C89.5217 43.4114 89.4384 43.3697 89.3551 43.3489C89.2718 43.3281 89.1677 43.3073 89.0636 43.3073H88.7305V45.3892H87.877V40.2676H89.5633C89.8131 40.2676 90.0213 40.2884 90.2295 40.3509C90.4377 40.4133 90.6042 40.4966 90.75 40.6007C90.8957 40.7256 91.0206 40.8505 91.1039 41.0379C91.1872 41.2045 91.2288 41.4127 91.2288 41.6417C91.2288 41.8291 91.208 41.9956 91.1455 42.1414C91.0831 42.2871 91.0206 42.4328 90.9165 42.5369C90.8124 42.6619 90.7083 42.766 90.5626 42.8492C90.4169 42.9325 90.2711 42.995 90.0838 43.0366V43.0574C90.167 43.1199 90.2503 43.1615 90.3336 43.224C90.3961 43.2864 90.4585 43.3489 90.521 43.4114C90.5834 43.4738 90.6459 43.5571 90.7083 43.6404C90.7708 43.7237 90.8333 43.8278 90.9165 43.9319L91.8117 45.4101ZM88.6889 40.9754V42.641H89.3967C89.5217 42.641 89.6466 42.6202 89.7507 42.5786C89.8548 42.5369 89.9589 42.4745 90.0421 42.412C90.1254 42.3287 90.1879 42.2455 90.2295 42.1414C90.2711 42.0373 90.292 41.9123 90.292 41.7666C90.292 41.5168 90.2087 41.3294 90.0629 41.1836C89.9172 41.0379 89.6882 40.9754 89.3967 40.9754H88.6889Z" fill="white"/>
<path id="Vector_16" d="M92.3945 45.4107V40.2891H94.0184C94.5181 40.2891 94.9136 40.3932 95.2051 40.6222C95.4966 40.8304 95.6423 41.1219 95.6423 41.4758C95.6423 41.7673 95.559 42.0171 95.3925 42.2253C95.2259 42.4335 94.9969 42.6001 94.7054 42.6833V42.7042C95.0594 42.7458 95.33 42.8707 95.559 43.0997C95.7672 43.3288 95.8713 43.5994 95.8713 43.9533C95.8713 44.3906 95.7047 44.7445 95.3508 45.0152C94.9969 45.2858 94.5597 45.4315 94.0392 45.4315H92.3945V45.4107ZM93.2481 40.9553V42.4127H93.7894C94.0809 42.4127 94.3099 42.3502 94.4764 42.2045C94.643 42.0587 94.7263 41.8714 94.7263 41.6215C94.7263 41.1843 94.4348 40.9553 93.8519 40.9553H93.2481ZM93.2481 43.0997V44.7237H93.9768C94.2891 44.7237 94.5389 44.6404 94.7054 44.4947C94.872 44.3489 94.9553 44.1407 94.9553 43.8909C94.9553 43.3496 94.5805 43.0997 93.8519 43.0997H93.2481Z" fill="white"/>
<path id="Vector_17" d="M101.034 45.4107H100.098L99.6396 44.0991H97.6201L97.1829 45.4107H96.2461L98.1614 40.2891H99.1191L101.034 45.4107ZM99.4106 43.412L98.7027 41.3717C98.6819 41.3092 98.6611 41.2051 98.6403 41.0594H98.6195C98.5986 41.2051 98.5778 41.3092 98.557 41.3717L97.8492 43.412H99.4106Z" fill="white"/>
<path id="Vector_18" d="M104.761 40.2884L103.074 43.5571V45.4101H102.221V43.5571L100.576 40.2676H101.555L102.554 42.4745C102.575 42.4953 102.596 42.5994 102.658 42.766H102.679C102.7 42.6827 102.741 42.5994 102.804 42.4745L103.866 40.2676H104.761V40.2884Z" fill="white"/>
<path id="Vector_19" d="M108.821 45.2028C108.425 45.411 107.946 45.4943 107.384 45.4943C106.635 45.4943 106.052 45.2653 105.594 44.7864C105.136 44.3076 104.928 43.7038 104.928 42.9334C104.928 42.1215 105.178 41.4552 105.677 40.9556C106.177 40.4559 106.822 40.2061 107.593 40.2061C108.092 40.2061 108.509 40.2685 108.821 40.4143V41.2679C108.467 41.0597 108.092 40.9556 107.676 40.9556C107.114 40.9556 106.677 41.1429 106.323 41.4969C105.969 41.8508 105.802 42.3297 105.802 42.9126C105.802 43.4748 105.969 43.9328 106.281 44.2659C106.593 44.599 107.03 44.7656 107.551 44.7656C108.03 44.7656 108.446 44.6615 108.8 44.4325V45.2028H108.821Z" fill="white"/>
<path id="Vector_20" d="M113.984 45.4107H113.047L112.589 44.0991H110.57L110.133 45.4107H109.217L111.132 40.2891H112.09L113.984 45.4107ZM112.381 43.412L111.673 41.3717C111.653 41.3092 111.632 41.2051 111.611 41.0594H111.59C111.569 41.2051 111.549 41.3092 111.528 41.3717L110.82 43.412H112.381Z" fill="white"/>
<path id="Vector_21" d="M119.043 45.4107H118.106L115.671 41.6423C115.608 41.5382 115.566 41.455 115.525 41.3509H115.504C115.525 41.455 115.525 41.7048 115.525 42.0587V45.4107H114.713V40.2891H115.712L118.086 43.9742C118.19 44.1199 118.252 44.224 118.273 44.2865H118.294C118.273 44.1407 118.252 43.9117 118.252 43.5994V40.2891H119.064V45.4107H119.043Z" fill="white"/>
<path id="Vector_22" d="M125.892 40.2884L124.206 43.5571V45.4101H123.373V43.5571L121.729 40.2676H122.707L123.706 42.4745C123.727 42.4953 123.748 42.5994 123.81 42.766H123.831C123.852 42.6827 123.894 42.5994 123.956 42.4745L125.018 40.2676H125.892V40.2884Z" fill="white"/>
<path id="Vector_23" d="M129.432 45.4107H126.559V40.2891H129.328V41.0178H127.412V42.4751H129.182V43.2038H127.412V44.7237H129.432V45.4107Z" fill="white"/>
<path id="Vector_24" d="M134.304 45.4101H133.305L132.493 44.036C132.409 43.911 132.347 43.8069 132.284 43.7028C132.222 43.6196 132.139 43.5363 132.076 43.4738C132.014 43.4114 131.931 43.3697 131.847 43.3489C131.764 43.3281 131.66 43.3073 131.556 43.3073H131.223V45.3892H130.369V40.2676H132.055C132.305 40.2676 132.514 40.2884 132.722 40.3509C132.93 40.4133 133.096 40.4966 133.242 40.6007C133.388 40.7256 133.513 40.8505 133.596 41.0379C133.679 41.2045 133.721 41.4127 133.721 41.6417C133.721 41.8291 133.7 41.9956 133.638 42.1414C133.575 42.2871 133.513 42.4328 133.409 42.5369C133.305 42.6619 133.201 42.766 133.055 42.8492C132.909 42.9325 132.763 42.995 132.576 43.0366V43.0574C132.659 43.1199 132.743 43.1615 132.826 43.224C132.888 43.2864 132.951 43.3489 133.013 43.4114C133.076 43.4738 133.138 43.5571 133.201 43.6404C133.263 43.7237 133.325 43.8278 133.409 43.9319L134.304 45.4101ZM131.181 40.9754V42.641H131.889C132.014 42.641 132.139 42.6202 132.243 42.5786C132.347 42.5369 132.451 42.4745 132.534 42.412C132.618 42.3287 132.68 42.2455 132.722 42.1414C132.763 42.0373 132.784 41.9123 132.784 41.7666C132.784 41.5168 132.701 41.3294 132.555 41.1836C132.409 41.0379 132.18 40.9754 131.889 40.9754H131.181Z" fill="white"/>
<path id="Vector_25" d="M138.843 43.3289C138.843 44.7654 138.156 45.4941 136.803 45.4941C135.491 45.4941 134.846 44.8071 134.846 43.4122V40.2684H135.699V43.2248C135.699 44.2241 136.095 44.7238 136.865 44.7238C137.615 44.7238 137.989 44.2449 137.989 43.2664V40.2475H138.843V43.3289ZM136.095 39.8103C135.97 39.8103 135.866 39.7687 135.783 39.6854C135.699 39.6021 135.658 39.498 135.658 39.3939C135.658 39.269 135.699 39.1857 135.783 39.1025C135.866 39.0192 135.97 38.9775 136.095 38.9775C136.22 38.9775 136.324 39.0192 136.407 39.1025C136.49 39.1857 136.532 39.269 136.532 39.3939C136.532 39.5189 136.49 39.6021 136.407 39.6854C136.303 39.7687 136.199 39.8103 136.095 39.8103ZM137.573 39.8103C137.448 39.8103 137.344 39.7687 137.261 39.6854C137.177 39.6021 137.136 39.498 137.136 39.3939C137.136 39.269 137.177 39.1857 137.261 39.1025C137.344 39.0192 137.448 38.9775 137.573 38.9775C137.698 38.9775 137.802 39.0192 137.885 39.1025C137.969 39.1857 138.01 39.269 138.01 39.3939C138.01 39.5189 137.969 39.6021 137.885 39.6854C137.802 39.7687 137.698 39.8103 137.573 39.8103Z" fill="white"/>
<path id="Vector_26" d="M139.8 45.2031V44.3287C139.883 44.3911 139.967 44.4744 140.071 44.5161C140.175 44.5785 140.3 44.6202 140.425 44.6618C140.55 44.7034 140.675 44.7243 140.799 44.7451C140.924 44.7659 141.028 44.7867 141.133 44.7867C141.486 44.7867 141.757 44.7243 141.924 44.5993C142.09 44.4744 142.194 44.3079 142.194 44.0788C142.194 43.9539 142.173 43.8498 142.111 43.7665C142.049 43.6833 141.965 43.6 141.861 43.5167C141.757 43.4334 141.632 43.371 141.486 43.3085C141.341 43.2461 141.195 43.1628 141.028 43.1003C140.862 43.017 140.695 42.9129 140.55 42.8088C140.404 42.7047 140.279 42.6006 140.154 42.4965C140.05 42.3716 139.967 42.2467 139.883 42.101C139.821 41.9552 139.779 41.7887 139.779 41.5805C139.779 41.3306 139.842 41.1224 139.946 40.9559C140.05 40.7685 140.196 40.6228 140.383 40.5187C140.57 40.3937 140.758 40.3105 140.987 40.2688C141.216 40.2064 141.445 40.1855 141.674 40.1855C142.215 40.1855 142.611 40.248 142.84 40.3729V41.2057C142.548 40.9975 142.173 40.8934 141.715 40.8934C141.591 40.8934 141.466 40.9142 141.341 40.9351C141.216 40.9559 141.112 40.9975 141.008 41.06C140.904 41.1224 140.82 41.1849 140.758 41.2682C140.695 41.3515 140.675 41.4556 140.675 41.5805C140.675 41.6846 140.695 41.7887 140.737 41.872C140.779 41.9552 140.862 42.0385 140.945 42.101C141.028 42.1634 141.153 42.2467 141.278 42.3092C141.403 42.3716 141.57 42.4549 141.736 42.5174C141.924 42.6006 142.09 42.7047 142.236 42.8088C142.402 42.9129 142.527 43.017 142.652 43.142C142.777 43.2669 142.861 43.4126 142.944 43.5584C143.006 43.7041 143.048 43.8915 143.048 44.0788C143.048 44.3287 142.985 44.5577 142.881 44.7451C142.777 44.9325 142.632 45.0782 142.465 45.1823C142.278 45.2864 142.09 45.3697 141.861 45.4321C141.632 45.4738 141.382 45.5154 141.133 45.5154C141.049 45.5154 140.945 45.5154 140.82 45.4946C140.695 45.4738 140.57 45.453 140.446 45.4321C140.321 45.4113 140.196 45.3697 140.071 45.3489C139.967 45.2864 139.883 45.2448 139.8 45.2031Z" fill="white"/>
<path id="Vector_27" d="M147.316 40.9963H145.838V45.3892H144.984V40.9963H143.506V40.2676H147.316V40.9963Z" fill="white"/>
<path id="Vector_28" d="M151.999 43.3289C151.999 44.7654 151.312 45.4941 149.959 45.4941C148.647 45.4941 148.002 44.8071 148.002 43.4122V40.2684H148.856V43.2248C148.856 44.2241 149.251 44.7238 150.021 44.7238C150.771 44.7238 151.146 44.2449 151.146 43.2664V40.2475H151.999V43.3289ZM149.251 39.8103C149.126 39.8103 149.022 39.7687 148.939 39.6854C148.856 39.6021 148.814 39.498 148.814 39.3939C148.814 39.269 148.856 39.1857 148.939 39.1025C149.022 39.0192 149.126 38.9775 149.251 38.9775C149.376 38.9775 149.48 39.0192 149.563 39.1025C149.647 39.1857 149.688 39.269 149.688 39.3939C149.688 39.5189 149.647 39.6021 149.563 39.6854C149.48 39.7687 149.376 39.8103 149.251 39.8103ZM150.75 39.8103C150.625 39.8103 150.521 39.7687 150.438 39.6854C150.355 39.6021 150.313 39.498 150.313 39.3939C150.313 39.269 150.355 39.1857 150.438 39.1025C150.521 39.0192 150.625 38.9775 150.75 38.9775C150.875 38.9775 150.979 39.0192 151.062 39.1025C151.146 39.1857 151.187 39.269 151.187 39.3939C151.187 39.5189 151.146 39.6021 151.062 39.6854C150.979 39.7687 150.875 39.8103 150.75 39.8103Z" fill="white"/>
<path id="Vector_29" d="M79.4664 54.1969H78.5295L76.0729 50.4285C76.0104 50.3244 75.9688 50.2411 75.9272 50.137H75.9064C75.9272 50.2411 75.9272 50.4909 75.9272 50.8449V54.1969H75.1152V49.0752H76.1145L78.4879 52.7603C78.592 52.906 78.6545 53.0101 78.6753 53.0726H78.6961C78.6753 52.9269 78.6545 52.6978 78.6545 52.3855V49.0752H79.4664V54.1969Z" fill="white"/>
<path id="Vector_30" d="M80.4043 51.2609H84.2974C84.2558 50.782 84.0893 50.4073 83.777 50.1158C83.4647 49.8451 83.0691 49.6994 82.5695 49.6994C82.0074 49.6994 81.5285 49.8451 81.1121 50.1366V49.3455C81.5285 49.0956 82.049 48.9707 82.6527 48.9707C83.4439 48.9707 84.0684 49.1997 84.5265 49.6578C84.9845 50.1158 85.2135 50.7612 85.2135 51.5732C85.2135 52.3435 84.9845 52.9889 84.5265 53.4886C84.0684 53.9883 83.4647 54.2381 82.7152 54.2381C81.9657 54.2381 81.4036 53.9883 80.9872 53.4678C80.5917 53.0097 80.4043 52.2602 80.4043 51.2609ZM84.2974 51.9688H81.3203C81.3203 52.4476 81.4661 52.8432 81.7159 53.1138C81.9657 53.4053 82.3196 53.5511 82.7568 53.5511C83.194 53.5511 83.548 53.4053 83.8394 53.1138C84.0893 52.8432 84.2558 52.4684 84.2974 51.9688Z" fill="white"/>
<path id="Vector_31" d="M88.2522 54.2801C87.8775 54.2801 87.5444 54.2176 87.2529 54.0927C86.9615 53.9678 86.6908 53.7804 86.4826 53.5722C86.2744 53.3432 86.1079 53.0726 85.983 52.7603C85.858 52.448 85.8164 52.094 85.8164 51.7193C85.8164 51.3029 85.8789 50.9281 86.0038 50.595C86.1287 50.2619 86.2952 49.9704 86.5034 49.7414C86.7116 49.5124 86.9823 49.325 87.2946 49.2001C87.6068 49.0752 87.9608 49.0127 88.3355 49.0127C88.6894 49.0127 89.0225 49.0752 89.314 49.2001C89.6055 49.325 89.8553 49.5124 90.0635 49.7206C90.2717 49.9496 90.4382 50.2202 90.5423 50.5325C90.6672 50.8448 90.7089 51.1988 90.7089 51.5735C90.7089 52.0732 90.6256 52.5312 90.459 52.906C90.2925 53.2807 90.0427 53.593 89.7512 53.8221L91.2293 54.8839H89.9386L89.0225 54.176C88.8976 54.2176 88.7727 54.2385 88.6478 54.2593C88.5437 54.2593 88.398 54.2801 88.2522 54.2801ZM88.2939 49.7206C88.0649 49.7206 87.8567 49.7622 87.6485 49.8663C87.4611 49.9496 87.2946 50.0953 87.1488 50.2619C87.0031 50.4284 86.899 50.6366 86.8157 50.8657C86.7324 51.0947 86.6908 51.3653 86.6908 51.636C86.6908 51.9275 86.7324 52.1773 86.7949 52.4063C86.8782 52.6353 86.9823 52.8435 87.1072 53.0101C87.2529 53.1766 87.3987 53.3016 87.6068 53.4057C87.7942 53.4889 88.0024 53.5514 88.2314 53.5514C88.4812 53.5514 88.6894 53.5098 88.8976 53.4265C89.085 53.3432 89.2515 53.2183 89.3973 53.0517C89.543 52.8852 89.6471 52.6978 89.7096 52.4688C89.7928 52.2398 89.8137 51.9691 89.8137 51.6776C89.8137 51.3653 89.772 51.0947 89.7096 50.8657C89.6471 50.6366 89.543 50.4284 89.3973 50.2619C89.2724 50.0953 89.1058 49.9704 88.9184 49.8871C88.7519 49.7622 88.5437 49.7206 88.2939 49.7206Z" fill="white"/>
<path id="Vector_32" d="M94.5189 54.1969H91.6875V49.0752H92.5411V53.489H94.5189V54.1969Z" fill="white"/>
<path id="Vector_33" d="M95.6852 48.5965C95.5603 48.5965 95.4562 48.5548 95.373 48.4715C95.2897 48.3883 95.248 48.2842 95.248 48.1801C95.248 48.076 95.2897 47.9719 95.373 47.8886C95.4562 47.8053 95.5603 47.7637 95.6852 47.7637C95.8102 47.7637 95.9143 47.8053 95.9975 47.8886C96.0808 47.9719 96.1224 48.0551 96.1224 48.1801C96.1224 48.2842 96.0808 48.3883 95.9975 48.4715C95.8934 48.5548 95.7893 48.5965 95.6852 48.5965ZM96.1224 54.197H95.248V49.0753H96.1224V54.197Z" fill="white"/>
<path id="Vector_34" d="M100.952 49.0755L99.2659 52.3442V54.1972H98.4123V52.3442L96.7676 49.0547H97.7461L98.7454 51.2616C98.7662 51.2824 98.787 51.3865 98.8495 51.5531H98.8703C98.8911 51.4698 98.9328 51.3865 98.9952 51.2616L100.057 49.0547H100.952V49.0755Z" fill="white"/>
<path id="Vector_35" d="M105.179 49.0755L103.492 52.3442V54.1972H102.639V52.3442L100.994 49.0547H101.973L102.972 51.2616C102.993 51.2824 103.014 51.3865 103.076 51.5531H103.097C103.118 51.4698 103.159 51.3865 103.222 51.2616L104.284 49.0547H105.179V49.0755Z" fill="white"/>
<path id="Vector_36" d="M109.488 54.1969H108.551L108.093 52.8852H106.073L105.636 54.1969H104.699L106.615 49.0752H107.572L109.488 54.1969ZM107.864 52.1982L107.156 50.1578C107.135 50.0954 107.114 49.9913 107.093 49.8455H107.073C107.052 49.9913 107.031 50.0954 107.01 50.1578L106.302 52.1982H107.864Z" fill="white"/>
<path id="Vector_37" d="M112.964 49.7831H111.486V54.1969H110.632V49.8039H109.154V49.0752H112.964V49.7831Z" fill="white"/>
<path id="Vector_38" d="M119.939 54.1969H119.002L118.544 52.8852H116.524L116.087 54.1969H115.15L117.066 49.0752H118.023L119.939 54.1969ZM118.315 52.1982L117.607 50.1578C117.586 50.0954 117.565 49.9913 117.545 49.8455H117.524C117.503 49.9913 117.482 50.0954 117.461 50.1578L116.753 52.1982H118.315Z" fill="white"/>
<path id="Vector_39" d="M124.561 53.8425C124.02 54.134 123.437 54.2797 122.77 54.2797C122.021 54.2797 121.396 54.0507 120.938 53.5719C120.459 53.093 120.23 52.4684 120.23 51.6981C120.23 50.9069 120.48 50.2615 121.001 49.741C121.521 49.2414 122.167 48.9707 122.958 48.9707C123.52 48.9707 123.999 49.054 124.394 49.2205V50.095C123.999 49.8243 123.541 49.6994 122.999 49.6994C122.458 49.6994 122 49.8868 121.667 50.2407C121.313 50.5946 121.146 51.0735 121.146 51.6356C121.146 52.2186 121.292 52.6766 121.605 53.0306C121.896 53.3637 122.312 53.5302 122.833 53.5302C123.187 53.5302 123.499 53.4678 123.749 53.322V52.1145H122.666V51.4066H124.602V53.8425H124.561Z" fill="white"/>
<path id="Vector_40" d="M128.537 54.1969H125.664V49.0752H128.433V49.8039H126.497V51.2613H128.266V51.99H126.497V53.5098H128.516V54.1969H128.537Z" fill="white"/>
<path id="Vector_41" d="M133.783 54.1969H132.847L130.39 50.4285C130.328 50.3244 130.286 50.2411 130.244 50.137C130.265 50.2411 130.265 50.4909 130.265 50.8449V54.1969H129.453V49.0752H130.452L132.826 52.7603C132.93 52.906 132.992 53.0101 133.013 53.0726H133.034C133.013 52.9269 132.992 52.6978 132.992 52.3855V49.0752H133.804V54.1969H133.783Z" fill="white"/>
<path id="Vector_42" d="M138.343 49.7831H136.865V54.1969H136.011V49.8039H134.533V49.0752H138.322V49.7831H138.343Z" fill="white"/>
<path id="Vector_43" d="M141.945 54.1969H139.113V49.0752H139.967V53.489H141.945V54.1969Z" fill="white"/>
<path id="Vector_44" d="M143.09 48.5965C142.965 48.5965 142.861 48.5548 142.777 48.4715C142.694 48.3883 142.652 48.2842 142.652 48.1801C142.652 48.076 142.694 47.9719 142.777 47.8886C142.861 47.8053 142.965 47.7637 143.09 47.7637C143.214 47.7637 143.319 47.8053 143.402 47.8886C143.485 47.9719 143.527 48.0551 143.527 48.1801C143.527 48.2842 143.485 48.3883 143.402 48.4715C143.319 48.5548 143.214 48.5965 143.09 48.5965ZM143.548 54.197H142.673V49.0753H143.548V54.197Z" fill="white"/>
<path id="Vector_45" d="M148.377 49.0748L146.69 52.3227V54.1757H145.858V52.3227L144.213 49.0332H145.191L146.191 51.2401C146.212 51.2609 146.232 51.365 146.295 51.5316H146.316C146.336 51.4483 146.378 51.365 146.441 51.2401L147.502 49.0332H148.377V49.0748Z" fill="white"/>
<path id="Vector_46" d="M149.461 48.5965C149.336 48.5965 149.232 48.5548 149.148 48.4715C149.065 48.3883 149.023 48.2842 149.023 48.1801C149.023 48.076 149.065 47.9719 149.148 47.8886C149.232 47.8053 149.336 47.7637 149.461 47.7637C149.586 47.7637 149.69 47.8053 149.773 47.8886C149.856 47.9719 149.898 48.0551 149.898 48.1801C149.898 48.2842 149.856 48.3883 149.773 48.4715C149.69 48.5548 149.586 48.5965 149.461 48.5965ZM149.898 54.197H149.023V49.0753H149.898V54.197Z" fill="white"/>
</g>
<g id="Group_4">
<path id="Vector_47" d="M86.046 36.0424L85.2133 32.5655H79.5713L78.6761 36.0424H72.5137L79.03 17.1172H86.1085L92.2501 36.0424H86.046ZM82.4652 21.2395H82.3402C82.3194 21.4477 82.257 21.8016 82.1529 22.2805C82.0488 22.7593 81.5075 24.8413 80.5498 28.5056H84.1723L82.8607 23.3631C82.6525 22.5928 82.5276 21.8849 82.4652 21.2395Z" fill="white"/>
<path id="Vector_48" d="M104.118 29.4633V36.0424H98.4133V29.5466L92.584 17.1172H99.1212L101.161 23.0716C101.307 23.4672 101.411 23.8212 101.453 24.1335C101.515 24.4249 101.578 24.7372 101.64 25.0495H101.703C101.807 24.2584 101.953 23.6338 102.077 23.1966L104.097 17.138H110.134L104.118 29.4633Z" fill="white"/>
<path id="Vector_49" d="M125.227 36.0424L118.544 26.9025C118.024 26.1738 117.587 25.5284 117.254 24.9454H117.191C117.254 25.8823 117.274 26.9233 117.274 28.0892V36.0424H111.986V17.1172H117.378L123.77 25.799C123.853 25.9031 123.936 26.0489 124.061 26.2154C124.165 26.382 124.29 26.5277 124.394 26.6943C124.499 26.8608 124.623 27.0274 124.728 27.1731C124.832 27.3397 124.915 27.4646 124.957 27.5895H125.019C124.957 27.194 124.936 26.5277 124.936 25.5908V17.1172H130.245V36.0424H125.227Z" fill="white"/>
<path id="Vector_50" d="M145.818 36.0424L144.985 32.5655H139.343L138.448 36.0424H132.285L138.802 17.1172H145.88L152.022 36.0424H145.818ZM142.237 21.2395H142.112C142.091 21.4477 142.028 21.8016 141.924 22.2805C141.82 22.7593 141.279 24.8413 140.321 28.5056H143.944L142.632 23.3631C142.424 22.5928 142.299 21.8849 142.237 21.2395Z" fill="white"/>
</g>
</g>
</g>
</g>
</svg>
