<svg width="224" height="64" viewBox="0 0 224 64" fill="none" xmlns="http://www.w3.org/2000/svg">
<g id="mincom_logo_az 1">
<path id="Vector" d="M57.102 39.3143C56.6256 39.1232 56.0959 39.1036 55.6063 39.2592C55.1168 39.4148 54.6987 39.7354 54.426 40.1646L49.6686 38.2721V38.1989C49.6726 38.0237 49.6353 37.8499 49.5595 37.6913C49.4837 37.5326 49.3716 37.3934 49.2319 37.2846C50.4836 33.6164 50.3816 29.6314 48.9439 26.0298L54.3888 23.7715C54.6634 24.2095 55.0841 24.5402 55.5789 24.7069C56.0738 24.8737 56.6121 24.8662 57.102 24.6858C57.4818 24.5213 57.8066 24.2545 58.039 23.9163C58.2714 23.578 58.402 23.182 58.4156 22.7739C58.4293 22.3659 58.3255 21.9623 58.1162 21.6097C57.9069 21.2571 57.6007 20.9699 57.2327 20.7812C56.8648 20.5924 56.4501 20.5098 56.0365 20.5428C55.6229 20.5759 55.2272 20.7232 54.895 20.9679C54.5629 21.2126 54.3077 21.5447 54.1589 21.9258C54.0102 22.307 53.9739 22.7218 54.0543 23.1223L48.628 25.3349C47.6671 23.1549 46.2337 21.2078 44.4281 19.6298C44.4872 19.5171 44.513 19.3904 44.5025 19.2641C44.5087 19.0555 44.4548 18.8495 44.3471 18.6698C44.2394 18.49 44.0823 18.344 43.8938 18.2484C43.7053 18.1528 43.4932 18.1116 43.282 18.1295C43.0707 18.1475 42.8689 18.2238 42.6999 18.3498C41.8458 17.7871 40.9515 17.2859 40.0239 16.8503L42.2353 11.5292C42.7349 11.6451 43.2602 11.5793 43.7144 11.3441C44.1686 11.1089 44.5211 10.72 44.7069 10.2492C44.9154 9.72357 44.9083 9.13877 44.687 8.6182C44.4657 8.09763 44.0476 7.682 43.5208 7.45901C42.994 7.23601 42.3998 7.22309 41.8635 7.42297C41.3273 7.62286 40.8909 8.01991 40.6464 8.53035C40.4534 9.00066 40.4342 9.52269 40.5921 10.0055C40.75 10.4883 41.075 10.9014 41.5106 11.1726L39.262 16.4572C35.7614 15.0998 31.897 14.9484 28.2978 16.0275C28.1426 15.7894 27.9297 15.593 27.6784 15.4558C27.427 15.3185 27.145 15.2448 26.8576 15.2412H26.5696L24.8227 11.1086C25.2456 10.8284 25.5607 10.4165 25.7174 9.93905C25.8741 9.4616 25.8633 8.94621 25.6868 8.47549C25.5789 8.20349 25.4165 7.95564 25.2092 7.74671C25.0019 7.53777 24.754 7.37203 24.4802 7.25936C24.2064 7.14668 23.9124 7.08937 23.6157 7.09085C23.3189 7.09232 23.0255 7.15255 22.7529 7.26795C22.4803 7.38334 22.2341 7.55154 22.029 7.76252C21.8238 7.9735 21.6639 8.22296 21.5588 8.49602C21.4537 8.76908 21.4055 9.06017 21.4171 9.35195C21.4287 9.64372 21.4999 9.93021 21.6264 10.1943C21.8201 10.6588 22.1743 11.041 22.6265 11.2735C23.0787 11.506 23.5999 11.5739 24.098 11.4652L25.8448 15.5978C25.6187 15.7479 25.434 15.951 25.3075 16.1888C25.181 16.4266 25.1166 16.6917 25.1201 16.9601C25.1071 17.0847 25.1365 17.2101 25.2037 17.3166C21.8829 19.0472 19.2609 21.8401 17.7703 25.2343L12.3998 23.0309C12.5201 22.5404 12.4555 22.0236 12.218 21.5763C11.9805 21.1291 11.5862 20.7818 11.1082 20.5989C10.571 20.371 9.96377 20.3624 9.4201 20.575C8.87643 20.7876 8.44086 21.204 8.20922 21.7326C7.97758 22.2612 7.96883 22.8588 8.1849 23.3937C8.40097 23.9287 8.82417 24.3573 9.36139 24.5852C9.83137 24.7749 10.3539 24.7975 10.8389 24.6489C11.324 24.5004 11.7412 24.1901 12.0188 23.7715L17.3894 25.9841C16.6884 27.7507 16.2927 29.6203 16.2186 31.5155C16.0411 31.5753 15.8884 31.691 15.7843 31.8447C15.6802 31.9984 15.6304 32.1815 15.6426 32.3658C15.6416 32.5478 15.696 32.726 15.7986 32.8775C15.9012 33.029 16.0475 33.1469 16.2186 33.2161C16.3723 34.847 16.7408 36.4513 17.3151 37.9886L11.9538 40.2286C11.6807 39.7986 11.2664 39.4735 10.7796 39.3072C10.2928 39.1409 9.76288 39.1434 9.27776 39.3143C9.01176 39.4272 8.77095 39.5905 8.56909 39.795C8.36723 39.9994 8.20826 40.2409 8.10128 40.5058C7.99429 40.7707 7.94137 41.0537 7.94554 41.3388C7.94971 41.6238 8.0109 41.9052 8.1256 42.1669C8.35724 42.6955 8.79281 43.1119 9.33647 43.3246C9.60567 43.4298 9.8933 43.4819 10.183 43.4778C10.4726 43.4737 10.7586 43.4135 11.0246 43.3006C11.4982 43.1148 11.8887 42.7684 12.1256 42.3241C12.3624 41.8798 12.43 41.3668 12.3161 40.8778L17.6867 38.6652C18.2759 40.0031 19.0583 41.2502 20.0096 42.3681C19.9221 42.5449 19.8746 42.7383 19.8703 42.9349C19.8678 43.0849 19.8958 43.2339 19.9527 43.373C20.0096 43.5122 20.0942 43.6387 20.2016 43.7452C20.309 43.8517 20.4369 43.936 20.5779 43.9931C20.7188 44.0502 20.87 44.079 21.0224 44.0778C21.2004 44.0601 21.3736 44.0105 21.5335 43.9315C22.959 45.2739 24.6216 46.3491 26.4395 47.1041L24.1444 52.3886C23.6461 52.2732 23.1222 52.3393 22.6695 52.5746C22.2169 52.8099 21.8661 53.1985 21.6821 53.6686C21.5674 53.9304 21.5063 54.2118 21.5021 54.4968C21.4979 54.7818 21.5508 55.0648 21.6578 55.3297C21.7648 55.5946 21.9238 55.8362 22.1256 56.0406C22.3275 56.245 22.5683 56.4083 22.8343 56.5212C23.1003 56.6341 23.3863 56.6943 23.6759 56.6984C23.9656 56.7025 24.2532 56.6504 24.5224 56.5451C24.7916 56.4399 25.0371 56.2834 25.2449 56.0848C25.4526 55.8862 25.6186 55.6492 25.7333 55.3875C25.9295 54.919 25.9503 54.3972 25.7921 53.915C25.6338 53.4327 25.3068 53.0215 24.8692 52.7543L27.1085 47.4698C29.0471 48.2304 31.1168 48.6153 33.2038 48.6035C35.2856 48.5921 37.3479 48.208 39.2898 47.4698L41.5384 52.8183C41.113 53.0964 40.7959 53.5081 40.6389 53.9864C40.482 54.4646 40.4944 54.9811 40.6743 55.4515C40.789 55.7132 40.955 55.9502 41.1627 56.1488C41.3705 56.3474 41.616 56.5039 41.8852 56.6091C42.1544 56.7144 42.442 56.7665 42.7317 56.7624C43.0213 56.7583 43.3073 56.6981 43.5733 56.5852C43.8393 56.4723 44.0801 56.309 44.282 56.1046C44.4838 55.9002 44.6428 55.6586 44.7498 55.3937C44.8568 55.1288 44.9097 54.8458 44.9055 54.5608C44.9013 54.2758 44.8402 53.9944 44.7255 53.7326C44.5345 53.2616 44.1782 52.8735 43.7214 52.6386C43.2646 52.4038 42.7373 52.3378 42.2353 52.4526L39.996 47.1041C43.6199 45.5533 46.5782 42.8041 48.3585 39.3326H48.4979C48.6686 39.3401 48.8384 39.3046 48.9913 39.2294C49.1441 39.1542 49.2749 39.0418 49.3713 38.9029L54.0822 40.8321C53.9618 41.3226 54.0264 41.8394 54.2639 42.2867C54.5014 42.7339 54.8958 43.0812 55.3737 43.2641C55.9162 43.4626 56.5143 43.4556 57.0518 43.2444C57.5893 43.0332 58.0278 42.6328 58.282 42.1212C58.5011 41.5948 58.5 41.0045 58.279 40.4788C58.058 39.9532 57.635 39.5347 57.102 39.3143ZM27.1271 18.6606L30.3141 26.0663L27.062 27.8492C26.8538 27.6434 26.6119 27.4734 26.3466 27.3463L27.1271 18.6606ZM32.4976 32.7132L31.9216 34.1303L31.0853 33.2801L32.4976 32.7132ZM30.3977 32.7132L27.6102 30.0801L32.2561 32.0001L30.3977 32.7132ZM33.1852 32.9966L34.8484 36.9189L32.4976 34.7429L33.1852 32.9966ZM34.4117 37.5681C34.2729 37.8312 34.1966 38.122 34.1887 38.4183V38.7018L30.0539 40.5303L32.1538 35.4652L34.4117 37.5681ZM35.9356 36.6538H35.7311L34.0679 32.6675L37.7846 34.1578L36.4931 36.7361C36.3253 36.6818 36.1466 36.6692 35.9727 36.6995L35.9356 36.6538ZM34.2259 32.0001L39.9496 29.6503L37.9147 33.4995L34.2259 32.0001ZM40.1726 31.0035L39.7451 34.2858L38.6487 33.8286L40.1726 31.0035ZM41.1017 29.9978C41.1853 29.9978 41.1853 29.9978 41.2504 29.9155L47.2528 37.2298L40.5907 34.4869L41.1017 29.9978ZM39.6615 28.9372L33.9378 31.2869L36.7253 24.5852H37.0877C37.2874 24.5798 37.4837 24.5331 37.6638 24.4481L39.9124 28.1052C39.7479 28.3615 39.6491 28.6533 39.6243 28.9555L39.6615 28.9372ZM36.0192 24.3018L33.2317 31.0035L31.2711 26.4321L35.7311 24.1006C35.8333 24.1646 35.8984 24.2286 36.0378 24.3018H36.0192ZM32.4791 31.2869L27.4987 29.2572V28.9738C27.5115 28.8286 27.4825 28.6829 27.4151 28.5532L30.6021 26.8343L32.4791 31.2869ZM25.8076 30.6469H25.8913L26.9041 34.1486L24.1166 35.2823L25.7054 30.6469H25.8076ZM26.616 30.4366C26.6903 30.4366 26.6903 30.3635 26.7554 30.3635L29.6544 33.1063L27.6381 33.8286L26.616 30.4366ZM30.2398 33.6366L31.6149 34.9166L29.4314 40.0549L27.8518 34.6332L30.2398 33.6366ZM34.4953 39.4149C34.6507 39.634 34.8579 39.8126 35.0991 39.9353C35.3404 40.0579 35.6083 40.121 35.8798 40.1189H36.1678L38.0262 44.5349L30.2676 41.2526L34.4953 39.4149ZM36.9019 39.7715C37.2629 39.5091 37.5193 39.1306 37.6266 38.7018H39.2062L38.5558 43.7029L36.9019 39.7715ZM37.6266 37.9429C37.528 37.59 37.328 37.2725 37.0506 37.0286L38.3421 34.4595L39.6429 34.9623L39.2713 37.8789L37.6266 37.9429ZM40.4141 35.3098L46.5745 37.8058L40.0703 37.8881L40.4141 35.3098ZM41.7986 29.4583C41.9181 29.2944 41.9681 29.0911 41.938 28.8915V28.8183L45.125 27.5383L47.513 36.5898L41.7986 29.4583ZM41.6499 28.1052L41.4269 27.8858L43.2853 20.6812L44.8741 26.7338L41.6499 28.1052ZM42.5791 19.9681L40.6185 27.6663H40.4792L38.2306 24.0092C38.41 23.8475 38.5537 23.6513 38.6528 23.4327C38.7519 23.2141 38.8043 22.9777 38.8067 22.7383C38.8067 22.5189 38.7323 22.3726 38.7323 22.1715L42.5791 19.9681ZM35.2573 23.3326L30.9088 25.6823L27.8053 18.3681L28.0283 18.1486L35.2015 22.2812C35.1354 22.4627 35.1101 22.656 35.1272 22.8481C35.2336 23.0073 35.3004 23.189 35.3223 23.3783L35.2573 23.3326ZM26.2629 18.5509L25.5103 27.3006C25.276 27.3262 25.0506 27.4036 24.8511 27.5271C24.6515 27.6506 24.483 27.817 24.3581 28.0138L21.0224 26.6515L26.2629 18.5509ZM24.0143 28.6081V29.1109L17.7053 31.5703L20.6043 27.1543L24.0143 28.6081ZM17.5752 32.4663L24.2466 29.8972C24.3727 30.1034 24.5481 30.2761 24.7577 30.4001L23.0108 35.6846L22.2861 35.9681L17.4358 32.6126C17.6403 32.5669 17.6403 32.5029 17.6403 32.5029L17.5752 32.4663ZM23.7263 36.2332L27.062 34.8801L28.7159 40.2286L23.652 36.7635L23.7263 36.2332ZM28.3721 40.9509L22.0724 42.3041C22.0114 42.1805 21.9099 42.0807 21.7843 42.0206L23.3082 37.4492L28.3721 40.9509ZM28.5766 41.7372L27.9168 43.4561L23.271 42.8892L28.5766 41.7372ZM29.3013 42.0846C29.4073 42.0875 29.5129 42.0696 29.6118 42.0319C29.7107 41.9942 29.801 41.9376 29.8774 41.8652L36.0285 44.4983L28.7066 43.5109L29.3013 42.0846ZM39.2341 44.2972L39.9588 38.6652L47.1971 38.5281L39.2341 44.2972ZM48.4328 36.8823L45.8962 27.2183L48.2191 26.3041C49.5905 29.697 49.6926 33.4589 48.5072 36.9189L48.4328 36.8823ZM47.9311 25.6001L45.6918 26.5143L44.0193 20.3155C45.7304 21.7471 47.0712 23.5584 47.9311 25.6001ZM42.2353 18.8801C42.2353 18.9623 42.161 19.0995 42.161 19.1635V19.3829L38.3142 21.5955L38.0262 21.3121L39.6058 17.4629C40.5279 17.8483 41.4087 18.3231 42.2353 18.8801ZM33.1852 16.1372C35.1687 16.1444 37.134 16.5101 38.9832 17.2161L37.4315 21.0286H37.0691C36.5509 21.0364 36.0555 21.2392 35.6847 21.5955L28.5115 17.4629C28.5781 17.3039 28.6036 17.1311 28.5858 16.9601V16.7315C30.1025 16.3514 31.6578 16.1398 33.2224 16.1006L33.1852 16.1372ZM25.5661 18.0663C25.5661 18.1395 25.6497 18.1395 25.6497 18.2035L20.2791 26.3406L18.5044 25.6001C19.9274 22.356 22.4313 19.6859 25.6032 18.0298L25.5661 18.0663ZM19.9353 26.9349L17.2128 31.0858C17.2868 29.4443 17.6548 27.8287 18.3 26.3132L19.9353 26.9349ZM17.2128 33.2801L21.6357 36.3338L18.2163 37.6961C17.6285 36.2911 17.2891 34.7976 17.2128 33.2801ZM22.3511 36.8458L22.7228 37.0652L21.1339 41.8378C21.004 41.8189 20.8715 41.8482 20.7623 41.9201C19.8913 40.8405 19.1609 39.658 18.588 38.4001L22.3511 36.8458ZM22.2118 43.4835L27.7217 44.1875L26.7926 46.4732C25.0775 45.7886 23.5198 44.7719 22.2118 43.4835ZM27.4151 46.7566L28.4279 44.2698L37.7196 45.4035C37.7795 45.6029 37.9013 45.7788 38.0679 45.9067C38.2345 46.0346 38.4376 46.108 38.6487 46.1166L38.8717 46.6835C35.205 48.159 31.101 48.1852 27.4151 46.7566ZM39.7451 46.4732L39.5128 45.9063C39.6987 45.717 39.805 45.4655 39.8102 45.2023V44.9829L47.4851 39.4149C45.7899 42.5608 43.0617 45.0488 39.7451 46.4732Z" fill="#0040C1"/>
<path id="Vector_2" d="M27.0624 7.31423C27.1893 7.48636 27.2867 7.67787 27.3504 7.88109C27.4376 8.05851 27.4881 8.25118 27.4991 8.44795L31.9219 5.24795C32.2996 4.97256 32.7573 4.8239 33.2274 4.8239C33.6975 4.8239 34.1551 4.97256 34.5329 5.24795L38.9557 8.44795C39.0393 8.22852 39.0393 8.08223 39.1044 7.88109C39.1871 7.68591 39.2834 7.49651 39.3924 7.31423C39.7192 6.76873 40.1959 6.32506 40.7676 6.03423L36.2797 2.74281C35.4177 2.04354 34.3353 1.66113 33.2181 1.66113C32.1009 1.66113 31.0185 2.04354 30.1565 2.74281L25.6407 6.04338C26.2335 6.31698 26.7289 6.7598 27.0624 7.31423ZM39.4482 56.6857C39.3174 56.5158 39.2198 56.3236 39.1601 56.1188C39.073 55.9414 39.0224 55.7487 39.0114 55.5519L34.5886 58.7519C34.2109 59.0273 33.7532 59.176 33.2831 59.176C32.813 59.176 32.3554 59.0273 31.9777 58.7519L27.5548 55.5519C27.4712 55.7714 27.4712 55.9177 27.4062 56.1188C27.3234 56.314 27.2271 56.5034 27.1181 56.6857C26.7913 57.2312 26.3146 57.6748 25.743 57.9657L30.2401 61.2571C31.1042 61.9634 32.1923 62.3501 33.3157 62.3501C34.4391 62.3501 35.5271 61.9634 36.3912 61.2571L40.8791 57.9748C40.2662 57.7189 39.7611 57.2639 39.4482 56.6857ZM11.1179 18.7977L11.7776 19.0171C11.969 19.0735 12.1442 19.1737 12.2886 19.3097L13.0877 13.9611C13.1533 13.5112 13.3653 13.0942 13.692 12.7728C14.0186 12.4514 14.4423 12.2428 14.8996 12.1782L20.3352 11.3919C20.2516 11.2457 20.1122 11.0262 20.0472 10.8799C19.9821 10.7337 19.8985 10.4594 19.8242 10.2399C19.6691 9.63613 19.6949 9.00108 19.8985 8.41138L14.3607 9.14281C13.246 9.25187 12.2042 9.73796 11.4129 10.5182C10.6217 11.2985 10.1299 12.3246 10.0215 13.4217L9.21308 18.8434C9.83681 18.6901 10.4873 18.6745 11.1179 18.7977ZM55.3183 45.1199L54.6586 44.9005C54.4694 44.8436 54.295 44.7469 54.1476 44.6171L53.3857 49.9657C53.3158 50.4207 53.0962 50.8405 52.7605 51.1609C52.4248 51.4813 51.9916 51.6845 51.5273 51.7394L46.0917 52.5348C46.2001 52.6952 46.2964 52.8633 46.3797 53.0377C46.4634 53.2571 46.5284 53.4582 46.612 53.6868C46.7615 54.2917 46.7324 54.9261 46.5284 55.5154L52.0384 54.7291C53.1535 54.6187 54.1955 54.1324 54.988 53.3526C55.7804 52.5728 56.2746 51.5475 56.3869 50.4502L57.1859 45.0285C56.5856 45.2367 55.9367 45.2684 55.3183 45.1199ZM8.72991 37.7691C8.91254 37.6912 9.1074 37.6449 9.30599 37.6319L6.05391 33.2799C5.77404 32.9083 5.62296 32.4579 5.62296 31.9954C5.62296 31.5328 5.77404 31.0825 6.05391 30.7108L9.30599 26.3588C9.08299 26.2765 8.94362 26.2765 8.72991 26.2125C8.5162 26.1485 8.30249 25.9931 8.15383 25.9291C7.60132 25.6052 7.151 25.1367 6.85299 24.5759L3.52658 28.9919C2.80532 29.8407 2.41016 30.9119 2.41016 32.0182C2.41016 33.1246 2.80532 34.1958 3.52658 35.0445L6.85299 39.4605C7.17333 38.9157 7.61883 38.4523 8.15383 38.1074C8.31611 37.9516 8.5135 37.8357 8.72991 37.7691ZM62.9282 28.9371L59.6018 24.5211C59.2818 25.0686 58.8364 25.535 58.3009 25.8834C58.1229 26.0031 57.9291 26.0985 57.7249 26.1668C57.5422 26.2446 57.3474 26.291 57.1488 26.3039L60.4009 30.6559C60.6815 31.029 60.833 31.4809 60.833 31.9451C60.833 32.4093 60.6815 32.8611 60.4009 33.2342L57.1488 37.5862C57.3718 37.6594 57.5112 37.6594 57.7249 37.7234C57.9386 37.7874 58.1523 37.9428 58.3009 38.0068C58.8535 38.3307 59.3038 38.7991 59.6018 39.3599L62.9282 34.9531C63.6501 34.1117 64.0461 33.0462 64.0461 31.9451C64.0461 30.844 63.6501 29.7784 62.9282 28.9371ZM13.1342 49.9748L12.3351 44.6354C12.1957 44.7085 11.9727 44.8548 11.824 44.9188L11.1643 45.1382C10.5495 45.2853 9.90488 45.2567 9.30599 45.0559L10.1051 50.4777C10.2152 51.5741 10.7076 52.5993 11.4985 53.3792C12.2894 54.1591 13.3302 54.6458 14.4443 54.7565L19.9635 55.5428C19.798 54.9469 19.7695 54.3223 19.8799 53.7142C19.9635 53.4857 20.0286 53.2845 20.1029 53.0651C20.1585 52.8779 20.257 52.7059 20.3909 52.5622L14.9646 51.7668C14.494 51.7278 14.0524 51.5267 13.7176 51.1989C13.3828 50.8711 13.1762 50.4377 13.1342 49.9748ZM53.3857 13.9611L54.1847 19.3097C54.3334 19.2274 54.5564 19.0811 54.6958 19.0171L55.3555 18.7977C55.9702 18.6501 56.615 18.6787 57.2138 18.8799L56.4147 13.4582C56.3148 12.356 55.828 11.3224 55.0378 10.5349C54.2477 9.74747 53.2036 9.25525 52.0848 9.14281L46.5656 8.35652C46.7355 8.95167 46.7642 9.57732 46.6492 10.1851C46.5656 10.4137 46.5098 10.6148 46.4262 10.8342C46.3707 11.0214 46.2721 11.1934 46.1382 11.3371L51.5738 12.1325C52.0404 12.1934 52.4726 12.4068 52.8012 12.7384C53.1298 13.07 53.3356 13.5006 53.3857 13.9611Z" fill="#0040C1"/>
<path id="YENI" d="M82.8389 21.6412H81.408L80.7019 19.6664H77.6077L76.9387 21.6412H75.5078L78.4719 13.8972H79.9492L82.8389 21.6412ZM80.3302 18.6241L79.2616 15.543C79.2184 15.3839 79.1873 15.222 79.1687 15.0584C79.1487 15.2233 79.1113 15.3856 79.0572 15.543L77.9794 18.6332L80.3302 18.6241ZM89.5196 14.4641L85.2083 20.5532H89.4732V21.6412H83.3779V21.0287L87.7078 14.9761H83.7216V13.9155H89.5196V14.4641ZM90.2258 17.2252H96.2004C96.1618 16.5809 95.8683 15.977 95.3827 15.543C94.8684 15.1058 94.2031 14.88 93.5244 14.9121C92.7303 14.8932 91.9502 15.1203 91.2944 15.5612V14.3727C92.0188 13.9795 92.8367 13.7838 93.6637 13.8058C94.1911 13.7749 94.7192 13.8534 95.2138 14.0361C95.7084 14.2188 96.1584 14.5016 96.5349 14.8664C96.8946 15.2577 97.1719 15.7153 97.3505 16.2129C97.5292 16.7104 97.6056 17.2378 97.5755 17.7647C97.6118 18.8252 97.2402 19.8602 96.5349 20.663C96.1855 21.0456 95.7543 21.3473 95.2724 21.5465C94.7904 21.7457 94.2696 21.8374 93.7474 21.815C93.2447 21.8438 92.7423 21.7543 92.2817 21.554C91.8212 21.3537 91.4158 21.0482 91.0992 20.663C90.4367 19.6407 90.1301 18.434 90.2258 17.2252ZM96.2004 18.2858H91.6381C91.6203 18.9175 91.8348 19.5344 92.2421 20.023C92.4431 20.2383 92.6894 20.4079 92.9638 20.52C93.2382 20.6321 93.5341 20.684 93.831 20.6721C94.1368 20.6788 94.441 20.6248 94.7251 20.5132C95.0093 20.4017 95.2677 20.235 95.4849 20.023C95.9167 19.5405 96.169 18.9279 96.2004 18.2858ZM105.111 21.6412H103.559L102.314 19.575C102.214 19.4035 102.102 19.2386 101.98 19.0812C101.88 18.9578 101.764 18.8473 101.636 18.7521C101.521 18.6773 101.4 18.6131 101.274 18.5601C101.126 18.5165 100.972 18.498 100.818 18.5052H100.289V21.6412H98.9971V13.8972H101.571C101.919 13.8963 102.265 13.9394 102.602 14.0252C102.899 14.1017 103.177 14.2354 103.42 14.4184C103.648 14.5908 103.833 14.813 103.959 15.0675C104.094 15.3536 104.161 15.6664 104.154 15.9818C104.154 16.2371 104.11 16.4906 104.024 16.7315C103.951 16.9604 103.831 17.1721 103.671 17.3532C103.518 17.5336 103.336 17.688 103.132 17.8104C102.905 17.9378 102.661 18.0332 102.407 18.0938C102.543 18.168 102.668 18.2603 102.779 18.3681C102.89 18.4593 102.993 18.5603 103.085 18.6698C103.178 18.7612 103.271 18.8892 103.374 19.0081C103.476 19.127 103.559 19.3007 103.671 19.4561L105.111 21.6412ZM100.335 14.9487V17.463H101.432C101.622 17.4632 101.811 17.4291 101.989 17.3624C102.156 17.3087 102.309 17.218 102.435 17.0972C102.567 16.9807 102.666 16.8327 102.723 16.6675C102.797 16.4937 102.835 16.3073 102.835 16.119C102.844 15.9575 102.818 15.7959 102.757 15.6458C102.696 15.4956 102.602 15.3606 102.482 15.2504C102.19 15.0286 101.827 14.9182 101.459 14.9395H100.335V14.9487ZM106.031 21.6412V13.8972H108.53C109.187 13.8532 109.84 14.0235 110.389 14.3818C110.597 14.5257 110.767 14.7175 110.884 14.9405C111.001 15.1635 111.06 15.4111 111.058 15.6618C111.067 16.0772 110.933 16.4836 110.677 16.8138C110.405 17.1436 110.04 17.3856 109.627 17.5087C110.117 17.5407 110.578 17.7452 110.928 18.0847C111.255 18.4385 111.429 18.9046 111.411 19.383C111.417 19.6943 111.347 20.0025 111.208 20.2823C111.069 20.562 110.865 20.8053 110.612 20.9921C110.033 21.4156 109.325 21.6318 108.605 21.6047H106.077L106.031 21.6412ZM107.322 14.9395V17.143H108.205C108.587 17.159 108.963 17.0496 109.274 16.8321C109.408 16.721 109.513 16.5802 109.581 16.4212C109.649 16.2623 109.677 16.0897 109.664 15.9178C109.664 15.2595 109.209 14.9304 108.317 14.9304L107.322 14.9395ZM107.322 18.167V20.6172H108.428C108.833 20.6446 109.233 20.5242 109.552 20.279C109.687 20.1679 109.793 20.0273 109.863 19.8685C109.932 19.7097 109.963 19.5372 109.952 19.3647C109.952 18.5601 109.395 18.167 108.252 18.167H107.322ZM119.262 21.6412H117.841L117.134 19.6664H114.04L113.362 21.6412H111.922L114.867 13.8972H116.345L119.262 21.6412ZM116.8 18.6241L115.704 15.543C115.66 15.3839 115.629 15.222 115.611 15.0584C115.591 15.2233 115.553 15.3856 115.499 15.543L114.431 18.6332L116.8 18.6241ZM124.986 13.9155L122.403 18.8344V21.6412H121.111V18.8435L118.593 13.8972H120.08L121.622 17.207C121.622 17.2527 121.697 17.399 121.78 17.6458C121.826 17.4947 121.885 17.3478 121.957 17.207L123.574 13.8972H124.967L124.986 13.9155ZM131.202 21.3212C130.513 21.6455 129.754 21.8023 128.991 21.7784C128.477 21.8074 127.963 21.7287 127.482 21.5474C127.002 21.3661 126.566 21.0865 126.203 20.727C125.5 19.964 125.132 18.9581 125.181 17.9292C125.157 17.38 125.247 16.8318 125.445 16.3178C125.643 15.8038 125.945 15.3348 126.333 14.9395C126.717 14.5607 127.175 14.263 127.68 14.0649C128.185 13.8668 128.726 13.7724 129.269 13.7875C129.903 13.774 130.534 13.8795 131.128 14.0984V15.3784C130.599 15.0725 129.995 14.9144 129.381 14.9212C128.999 14.9092 128.619 14.9745 128.265 15.1129C127.91 15.2513 127.588 15.4599 127.318 15.7258C127.047 16.0138 126.838 16.3523 126.702 16.7214C126.566 17.0904 126.507 17.4825 126.528 17.8744C126.506 18.2446 126.561 18.6153 126.689 18.9642C126.816 19.313 127.015 19.6328 127.272 19.9041C127.522 20.1565 127.823 20.3544 128.156 20.4851C128.489 20.6158 128.846 20.6764 129.204 20.663C129.884 20.6807 130.553 20.4993 131.128 20.1418V21.3212H131.202ZM139.156 21.6412H137.725L137.009 19.6664H133.915L133.293 21.6412H131.862L134.817 13.8972H136.294L139.156 21.6412ZM136.666 18.6241L135.578 15.543C135.535 15.3839 135.504 15.222 135.486 15.0584C135.465 15.2233 135.428 15.3856 135.374 15.543L134.296 18.6332L136.666 18.6241ZM146.896 21.6412H145.465L141.748 15.9452C141.653 15.807 141.572 15.66 141.507 15.5064C141.556 15.8546 141.574 16.2064 141.562 16.5578V21.6412H140.289V13.8972H141.813L145.437 19.447C145.547 19.5967 145.643 19.7558 145.725 19.9224C145.684 19.5765 145.668 19.2282 145.678 18.8801V13.8972H146.924V21.6412H146.896ZM158.018 21.6412H156.522L155.267 19.575C155.167 19.4035 155.055 19.2386 154.933 19.0812C154.836 18.958 154.724 18.8473 154.598 18.7521C154.481 18.6773 154.356 18.613 154.227 18.5601C154.083 18.5159 153.932 18.4973 153.781 18.5052H153.251V21.6412H151.95V13.8972H154.533C154.881 13.8963 155.228 13.9394 155.565 14.0252C155.858 14.1019 156.133 14.2356 156.373 14.4184C156.605 14.5897 156.793 14.812 156.921 15.0675C157.057 15.3536 157.123 15.6664 157.117 15.9818C157.116 16.2371 157.072 16.4906 156.986 16.7315C156.906 16.9572 156.786 17.1675 156.633 17.3532C156.479 17.5359 156.294 17.6906 156.085 17.8104C155.862 17.9391 155.621 18.0346 155.37 18.0938C155.503 18.168 155.625 18.2603 155.732 18.3681C155.848 18.4545 155.951 18.556 156.039 18.6698C156.144 18.7745 156.24 18.8876 156.327 19.0081C156.429 19.1361 156.522 19.3007 156.633 19.4561L158.018 21.6412ZM153.242 14.9487V17.463H154.329C154.523 17.4639 154.715 17.4298 154.896 17.3624C155.062 17.3065 155.214 17.216 155.342 17.0972C155.474 16.9807 155.573 16.8327 155.63 16.6675C155.703 16.4937 155.741 16.3073 155.741 16.119C155.751 15.9575 155.725 15.7959 155.664 15.6458C155.603 15.4956 155.509 15.3606 155.388 15.2504C155.097 15.0286 154.734 14.9182 154.366 14.9395H153.242V14.9487ZM163.342 21.6412H158.928V13.8972H163.165V14.9852H160.239V17.1795H162.942V18.2858H160.239V20.5715H163.351L163.342 21.6412ZM164.383 21.3395V20.0138C164.507 20.1328 164.651 20.2288 164.81 20.2972C164.98 20.3846 165.157 20.458 165.34 20.5167C165.522 20.577 165.708 20.6259 165.897 20.663C166.07 20.6753 166.244 20.6753 166.417 20.663C166.841 20.6902 167.263 20.5983 167.635 20.3978C167.764 20.3095 167.869 20.1901 167.939 20.051C168.009 19.9118 168.042 19.7574 168.034 19.6024C168.038 19.4378 167.992 19.2759 167.904 19.1361C167.81 18.9882 167.683 18.8632 167.532 18.7704C167.357 18.6502 167.17 18.5462 166.975 18.4595L166.269 18.1395C165.999 18.0024 165.758 17.8561 165.516 17.7098C165.299 17.5796 165.099 17.4229 164.922 17.2435C164.741 17.0651 164.6 16.8521 164.508 16.6177C164.415 16.3833 164.372 16.1326 164.383 15.8812C164.376 15.5591 164.463 15.2418 164.633 14.967C164.799 14.6978 165.024 14.4695 165.293 14.2995C165.581 14.1234 165.894 13.9909 166.222 13.9064C166.57 13.8308 166.925 13.791 167.282 13.7875C167.892 13.7544 168.502 13.8446 169.075 14.0527V15.3144C168.568 14.979 167.966 14.8123 167.356 14.839C167.163 14.8409 166.971 14.8562 166.78 14.8847C166.603 14.9204 166.431 14.9788 166.269 15.0584C166.126 15.1421 166 15.2505 165.897 15.3784C165.816 15.5174 165.773 15.675 165.773 15.8355C165.773 15.996 165.816 16.1537 165.897 16.2927C165.982 16.4276 166.093 16.5455 166.222 16.6401C166.383 16.756 166.554 16.857 166.733 16.9418C166.938 17.0332 167.161 17.143 167.44 17.2527C167.718 17.3624 167.969 17.5361 168.201 17.6915C168.432 17.8436 168.647 18.0182 168.843 18.2127C169.032 18.3904 169.18 18.6054 169.279 18.8435C169.391 19.0874 169.445 19.3532 169.437 19.6207C169.453 19.9657 169.369 20.308 169.196 20.6081C169.036 20.8787 168.813 21.1077 168.545 21.2755C168.258 21.4468 167.944 21.5704 167.616 21.6412C167.246 21.7162 166.869 21.753 166.492 21.751H166.009L165.423 21.6778C165.225 21.6442 165.029 21.5953 164.838 21.5315C164.678 21.4878 164.525 21.4232 164.383 21.3395ZM172.15 18.8344V21.6412H170.85V13.8972H173.247C173.999 13.8493 174.743 14.0665 175.347 14.5098C175.6 14.7262 175.8 14.997 175.931 15.3014C176.061 15.6057 176.119 15.9355 176.099 16.2652C176.113 16.6076 176.05 16.9487 175.915 17.2645C175.78 17.5804 175.577 17.8634 175.319 18.0938C174.74 18.5921 173.987 18.848 173.219 18.807H172.16L172.15 18.8344ZM172.15 14.967V17.7921H173.005C173.464 17.8197 173.918 17.6869 174.288 17.4172C174.433 17.2782 174.547 17.1099 174.621 16.9237C174.695 16.7375 174.727 16.5379 174.715 16.3384C174.715 15.4241 174.167 14.967 173.098 14.967H172.15ZM183.468 18.5144C183.468 20.6904 182.427 21.7784 180.327 21.7784C178.227 21.7784 177.326 20.7361 177.326 18.6424V13.9155H178.627V18.3772C178.627 19.8858 179.221 20.6447 180.42 20.6447C181.619 20.6447 182.148 19.9224 182.148 18.4504V13.879H183.468V18.4504V18.5144ZM185.326 21.6412V13.8972H187.825C188.482 13.8518 189.136 14.0223 189.684 14.3818C189.895 14.5236 190.068 14.7146 190.186 14.9379C190.305 15.1613 190.365 15.41 190.362 15.6618C190.369 16.0783 190.231 16.4848 189.972 16.8138C189.706 17.145 189.342 17.3876 188.931 17.5087C189.42 17.5431 189.881 17.7472 190.232 18.0847C190.56 18.4385 190.733 18.9046 190.715 19.383C190.719 19.6949 190.648 20.0034 190.508 20.2831C190.367 20.5628 190.161 20.8058 189.907 20.9921C189.332 21.4156 188.627 21.6319 187.909 21.6047H185.326V21.6412ZM186.627 14.9395V17.143H187.472C187.857 17.1603 188.236 17.0509 188.55 16.8321C188.683 16.7201 188.786 16.5789 188.852 16.42C188.918 16.2611 188.946 16.089 188.931 15.9178C188.931 15.2595 188.485 14.9304 187.584 14.9304L186.627 14.9395ZM186.627 18.167V20.6172H187.733C188.137 20.6446 188.537 20.5242 188.857 20.279C188.991 20.1679 189.098 20.0273 189.167 19.8685C189.236 19.7097 189.267 19.5372 189.256 19.3647C189.256 18.5601 188.69 18.167 187.556 18.167H186.627ZM196.476 21.6412H192.118V13.8972H193.419V20.5532H196.476V21.6412ZM198.223 13.1841C198.049 13.1825 197.881 13.121 197.749 13.0104C197.686 12.9553 197.637 12.8876 197.603 12.8119C197.569 12.7361 197.552 12.6542 197.554 12.5715C197.553 12.489 197.57 12.4072 197.604 12.3315C197.637 12.2559 197.687 12.1881 197.749 12.1327C197.812 12.0732 197.886 12.027 197.967 11.9971C198.049 11.9672 198.136 11.9542 198.223 11.959C198.4 11.9559 198.572 12.0178 198.706 12.1327C198.77 12.187 198.82 12.2545 198.854 12.3304C198.888 12.4063 198.904 12.4887 198.901 12.5715C198.903 12.6542 198.886 12.7361 198.852 12.8119C198.818 12.8876 198.769 12.9553 198.706 13.0104C198.642 13.0706 198.566 13.1171 198.483 13.147C198.4 13.1769 198.311 13.1895 198.223 13.1841ZM198.92 21.6412H197.572V13.8972H198.92V21.6412ZM206.799 21.6412H205.099L202.358 18.103C202.291 18.018 202.229 17.9295 202.172 17.8378V21.6595H200.871V13.9155H202.172V17.5727C202.226 17.4795 202.288 17.3908 202.358 17.3075L205.006 13.9338H206.576L203.482 17.591L206.799 21.6412ZM214.177 21.6412H212.746L212.04 19.6664H208.945L208.276 21.6412H206.846L209.8 13.8972H211.268L214.177 21.6412ZM211.686 18.6241L210.599 15.543C210.556 15.3839 210.525 15.222 210.506 15.0584C210.492 15.2226 210.461 15.385 210.414 15.543L209.336 18.6332L211.686 18.6241ZM214.892 21.3395V20.0138C215.021 20.131 215.169 20.2267 215.329 20.2972C215.499 20.3846 215.676 20.458 215.858 20.5167C216.04 20.5793 216.227 20.6282 216.416 20.663C216.586 20.6749 216.757 20.6749 216.927 20.663C217.35 20.6928 217.773 20.6007 218.144 20.3978C218.276 20.3106 218.382 20.1917 218.454 20.0524C218.525 19.9132 218.56 19.7583 218.553 19.6024C218.553 19.4383 218.508 19.2772 218.423 19.1361C218.323 18.9924 218.197 18.8683 218.051 18.7704C217.875 18.6502 217.689 18.5462 217.494 18.4595L216.788 18.1395C216.509 18.0024 216.277 17.8561 216.035 17.7098C215.816 17.5818 215.616 17.425 215.44 17.2435C215.273 17.0734 215.138 16.8752 215.041 16.6584C214.934 16.4131 214.883 16.1479 214.892 15.8812C214.888 15.5583 214.979 15.241 215.152 14.967C215.315 14.6957 215.541 14.4668 215.812 14.2995C216.1 14.1234 216.413 13.9909 216.741 13.9064C217.086 13.8313 217.438 13.7915 217.791 13.7875C218.404 13.7544 219.017 13.8446 219.594 14.0527V15.3144C219.086 14.9813 218.484 14.8149 217.875 14.839C217.682 14.8405 217.489 14.8558 217.299 14.8847C217.121 14.9177 216.948 14.9763 216.788 15.0584C216.641 15.1371 216.515 15.2463 216.416 15.3784C216.334 15.5174 216.291 15.675 216.291 15.8355C216.291 15.996 216.334 16.1537 216.416 16.2927C216.497 16.4274 216.605 16.5454 216.732 16.6401C216.895 16.752 217.066 16.8528 217.243 16.9418L217.949 17.2527C218.228 17.399 218.479 17.5361 218.72 17.6915C218.951 17.8436 219.166 18.0182 219.361 18.2127C219.548 18.3924 219.696 18.6068 219.798 18.8435C219.91 19.0874 219.964 19.3532 219.956 19.6207C219.967 19.9651 219.883 20.3061 219.714 20.6081C219.554 20.8812 219.328 21.1106 219.055 21.2755C218.768 21.4477 218.454 21.5714 218.126 21.6412C217.756 21.7162 217.379 21.753 217.001 21.751H216.518L215.923 21.6778C215.728 21.6431 215.535 21.5942 215.347 21.5315C215.188 21.4868 215.035 21.4223 214.892 21.3395ZM222.697 21.6412H221.35V13.8972H222.697V21.6412ZM82.4487 35.8309H80.9249L79.6798 33.7647C79.5815 33.5947 79.4696 33.4327 79.3453 33.2801C79.2501 33.1497 79.134 33.0355 79.0015 32.9418C78.8888 32.8665 78.7671 32.8051 78.6391 32.759C78.4952 32.7128 78.3444 32.6911 78.1931 32.695H77.6635V35.8309H76.3627V28.087H78.9457C79.2906 28.0866 79.634 28.1297 79.9678 28.215C80.2627 28.2953 80.5399 28.4286 80.7855 28.6081C81.014 28.7827 81.2011 29.0042 81.3337 29.2572C81.4612 29.5455 81.5246 29.8572 81.5195 30.1715C81.5194 30.4298 81.4754 30.6863 81.3894 30.9304C81.3138 31.1535 81.1972 31.3611 81.0456 31.543C80.7151 31.9202 80.2679 32.1803 79.7727 32.2835C79.9099 32.3523 80.0353 32.4418 80.1444 32.5487C80.2534 32.6423 80.3559 32.7431 80.451 32.8504C80.5533 32.961 80.6494 33.077 80.739 33.1978C80.8319 33.3258 80.9249 33.4812 81.0456 33.6367L82.4487 35.8309ZM77.6728 29.1475V31.6527H78.7692C78.9591 31.6558 79.1481 31.6248 79.3267 31.5612C79.4946 31.5043 79.6471 31.4105 79.7727 31.287C79.9046 31.1741 80.004 31.029 80.0607 30.8664C80.1341 30.6893 80.172 30.4999 80.1722 30.3087C80.182 30.1486 80.1554 29.9884 80.0943 29.8397C80.0332 29.6911 79.9392 29.5577 79.8191 29.4492C79.5317 29.2195 79.1666 29.1052 78.7971 29.1292H77.6728V29.1475ZM82.8482 31.415H88.8321C88.7992 30.7587 88.5055 30.1414 88.0144 29.6961C87.4978 29.263 86.8341 29.0378 86.1561 29.0652C85.3644 29.0433 84.5864 29.2707 83.9354 29.7144V28.535C84.6566 28.133 85.4762 27.9338 86.3047 27.959C86.8321 27.9281 87.3602 28.0065 87.8548 28.1892C88.3494 28.3719 88.7994 28.6548 89.1759 29.0195C89.5348 29.4114 89.8115 29.8691 89.9901 30.3665C90.1686 30.8639 90.2456 31.3911 90.2165 31.9178C90.2506 32.9808 89.8794 34.0179 89.1759 34.8252C88.8261 35.2073 88.3949 35.5087 87.913 35.7079C87.4311 35.907 86.9105 35.999 86.3884 35.9772C85.8874 36.0031 85.3873 35.9123 84.9288 35.7121C84.4702 35.5119 84.0662 35.2081 83.7495 34.8252C83.0669 33.821 82.7493 32.6192 82.8482 31.415ZM88.8321 32.4847H84.2606C84.2419 33.1181 84.4601 33.7362 84.8738 34.2218C85.0728 34.4396 85.3187 34.611 85.5936 34.7233C85.8685 34.8356 86.1654 34.8861 86.4627 34.871C86.7676 34.8807 87.0712 34.8281 87.3543 34.7163C87.6374 34.6046 87.8938 34.4362 88.1073 34.2218C88.5562 33.7491 88.8139 33.1313 88.8321 32.4847ZM94.8995 35.959C94.3637 35.9644 93.8324 35.8617 93.3385 35.6572C92.8888 35.4746 92.4835 35.2004 92.1492 34.8527C91.8206 34.4923 91.5651 34.0733 91.3966 33.6184C91.2116 33.108 91.1204 32.5693 91.1271 32.0275C91.1215 31.4559 91.2126 30.8874 91.3966 30.3452C91.5595 29.8646 91.8221 29.4225 92.1678 29.047C92.5055 28.6862 92.9216 28.4049 93.385 28.2241C93.8983 28.0323 94.4434 27.9361 94.9924 27.9407C95.508 27.9394 96.019 28.0356 96.4977 28.2241C96.9462 28.4114 97.3494 28.6898 97.6809 29.0412C98.0124 29.3926 98.2646 29.8089 98.4211 30.263C98.6038 30.7676 98.695 31.2998 98.6905 31.8355C98.7031 32.5245 98.5735 33.2087 98.3096 33.847C98.0675 34.3903 97.6905 34.8651 97.2131 35.2275L99.4896 36.855H97.5012L96.126 35.8035C95.9309 35.8492 95.7358 35.895 95.5406 35.9224C95.3285 35.9536 95.1139 35.9658 94.8995 35.959ZM94.9646 29.1018C94.6438 29.1026 94.3269 29.1712 94.0354 29.3029C93.7373 29.4392 93.4739 29.6391 93.2642 29.8881C93.0402 30.1578 92.8728 30.4686 92.7717 30.8024C92.5363 31.5685 92.5363 32.386 92.7717 33.1521C92.8677 33.4861 93.0321 33.7973 93.2549 34.0664C93.457 34.3155 93.7145 34.5157 94.0075 34.6515C94.2971 34.7889 94.6153 34.8578 94.9367 34.8527C95.2835 34.8618 95.6285 34.7995 95.9495 34.6698C96.2434 34.5436 96.504 34.3528 96.7114 34.1121C96.9419 33.848 97.1073 33.5351 97.1946 33.1978C97.3131 32.8093 97.3726 32.4057 97.3711 32.0001C97.3794 31.5833 97.3262 31.1675 97.2131 30.7658C97.1135 30.4368 96.9563 30.1274 96.7486 29.8515C96.5475 29.6059 96.2894 29.4115 95.9959 29.2847C95.6663 29.1626 95.3168 29.1006 94.9646 29.1018ZM99.629 31.415H105.613C105.575 30.7598 105.282 30.1442 104.795 29.6961C104.279 29.263 103.615 29.0378 102.937 29.0652C102.145 29.0433 101.367 29.2707 100.716 29.7144V28.535C101.437 28.133 102.257 27.9338 103.085 27.959C103.613 27.9292 104.14 28.0082 104.635 28.1908C105.129 28.3734 105.58 28.6557 105.957 29.0195C106.316 29.4114 106.592 29.8691 106.771 30.3665C106.949 30.8639 107.026 31.3911 106.997 31.9178C107.031 32.9808 106.66 34.0179 105.957 34.8252C105.606 35.2059 105.174 35.5062 104.693 35.7052C104.211 35.9043 103.691 35.9971 103.169 35.9772C102.668 36.0031 102.168 35.9123 101.71 35.7121C101.251 35.5119 100.847 35.2081 100.53 34.8252C99.8477 33.821 99.53 32.6192 99.629 31.415ZM105.613 32.4847H101.041C101.023 33.1181 101.241 33.7362 101.655 34.2218C101.853 34.4384 102.097 34.609 102.37 34.7213C102.643 34.8336 102.938 34.8847 103.234 34.871C103.54 34.8803 103.845 34.8275 104.13 34.7159C104.414 34.6042 104.672 34.436 104.888 34.2218C105.337 33.7491 105.595 33.1313 105.613 32.4847ZM116.893 35.8309H115.639V30.8298C115.639 30.4275 115.639 29.9155 115.722 29.3395C115.674 29.5854 115.606 29.827 115.518 30.0618L113.176 35.8492H112.247L109.896 30.1075C109.831 29.9338 109.766 29.6778 109.683 29.3395V35.8492H108.475V28.1052H110.333L112.396 33.2618C112.523 33.5579 112.625 33.8637 112.702 34.1761C112.785 33.8617 112.897 33.5557 113.037 33.2618L115.137 28.1418H116.911V35.8492L116.893 35.8309ZM118.426 35.5292V34.2035C118.555 34.3236 118.702 34.4224 118.863 34.4961C119.032 34.578 119.206 34.6513 119.383 34.7155C119.567 34.7784 119.757 34.8243 119.95 34.8527C120.118 34.8844 120.289 34.8997 120.461 34.8984C120.884 34.9283 121.307 34.8361 121.678 34.6332C121.821 34.5519 121.94 34.4345 122.021 34.2931C122.103 34.1516 122.145 33.9913 122.143 33.8287C122.147 33.6611 122.102 33.4958 122.013 33.3532C121.917 33.2098 121.794 33.0857 121.65 32.9875C121.472 32.8655 121.282 32.7613 121.083 32.6767L120.387 32.3567C120.108 32.2195 119.866 32.0732 119.625 31.9361C119.41 31.8021 119.214 31.6424 119.039 31.4607C118.87 31.2921 118.734 31.0936 118.64 30.8755C118.521 30.6575 118.448 30.418 118.426 30.1715C118.424 29.8488 118.514 29.5319 118.686 29.2572C118.848 28.9912 119.071 28.7658 119.337 28.599C119.623 28.4208 119.937 28.2881 120.266 28.2058C120.613 28.1228 120.968 28.0798 121.325 28.0778C121.935 28.0436 122.546 28.1339 123.118 28.343V29.6047C122.613 29.2746 122.015 29.1084 121.409 29.1292C121.215 29.1289 121.022 29.1473 120.833 29.1841C120.652 29.2084 120.479 29.2674 120.322 29.3578C120.174 29.4304 120.046 29.5371 119.95 29.6687C119.85 29.8074 119.798 29.9741 119.801 30.1441C119.797 30.2977 119.835 30.4494 119.913 30.583C119.998 30.7179 120.108 30.8357 120.238 30.9304C120.396 31.0495 120.568 31.1507 120.749 31.2321L121.455 31.543C121.72 31.6794 121.977 31.8289 122.226 31.991C122.462 32.1374 122.677 32.3125 122.867 32.5121C123.053 32.6907 123.199 32.9056 123.295 33.143C123.41 33.3829 123.467 33.6457 123.462 33.911C123.472 34.2582 123.388 34.6019 123.221 34.9075C123.052 35.172 122.827 35.3968 122.561 35.5658C122.274 35.7385 121.96 35.8621 121.632 35.9315C121.262 36.007 120.885 36.0437 120.507 36.0412H120.033C119.848 36.0412 119.643 36.0412 119.439 35.9681C119.243 35.9334 119.051 35.8845 118.863 35.8218C118.704 35.7442 118.557 35.6458 118.426 35.5292ZM131.434 35.8309H130.003L129.269 33.8287H126.175L125.497 35.7944H124.075L127.021 28.0504H128.498L131.434 35.8309ZM128.953 32.823L127.857 29.7327C127.8 29.5774 127.754 29.4185 127.718 29.2572C127.699 29.4253 127.661 29.5908 127.606 29.751L126.538 32.8412L128.953 32.823ZM136.833 35.8309H132.466V28.087H133.767V34.743H136.814V35.8309H136.833ZM141.702 27.4287C141.525 27.4254 141.355 27.3643 141.218 27.255C141.158 27.1969 141.11 27.1272 141.078 27.0501C141.046 26.973 141.031 26.8902 141.033 26.807C141.03 26.725 141.045 26.6435 141.077 26.5678C141.109 26.4921 141.158 26.424 141.218 26.3681C141.282 26.3079 141.358 26.2614 141.442 26.2315C141.525 26.2016 141.613 26.1889 141.702 26.1944C141.879 26.1913 142.051 26.2533 142.185 26.3681C142.247 26.4233 142.296 26.4912 142.328 26.5671C142.36 26.6429 142.374 26.7248 142.371 26.807C142.373 26.8902 142.357 26.973 142.325 27.0501C142.293 27.1272 142.246 27.1969 142.185 27.255C142.05 27.3676 141.879 27.4292 141.702 27.4287ZM142.389 35.8767H141.042V28.087H142.389V35.8767ZM150.993 35.8309H149.572L145.855 30.135C145.762 29.9957 145.681 29.8489 145.613 29.6961C145.653 30.0482 145.668 30.4025 145.66 30.7567V35.8309H144.396V28.087H145.92L149.544 33.6367C149.648 33.7901 149.744 33.9488 149.832 34.1121C149.795 33.7659 149.78 33.4178 149.785 33.0698V28.087H150.947V35.8309H150.993ZM158.882 35.8309H157.182L154.394 32.3018C154.327 32.2141 154.265 32.1225 154.208 32.0275V35.8492H152.907V28.1052H154.208V31.7624C154.265 31.6706 154.327 31.5821 154.394 31.4972L157.042 28.1235H158.612L155.593 31.8081L158.882 35.8309ZM160.434 27.4287C160.26 27.427 160.092 27.3656 159.96 27.255C159.898 27.1974 159.849 27.1279 159.815 27.0509C159.781 26.9738 159.764 26.8908 159.765 26.807C159.764 26.7244 159.781 26.6426 159.814 26.567C159.848 26.4913 159.898 26.4236 159.96 26.3681C160.022 26.3077 160.096 26.2609 160.178 26.2309C160.259 26.201 160.347 26.1885 160.434 26.1944C160.611 26.1913 160.783 26.2533 160.917 26.3681C160.98 26.4224 161.031 26.4899 161.065 26.5659C161.098 26.6418 161.115 26.7241 161.112 26.807C161.112 26.8908 161.095 26.9738 161.062 27.0509C161.028 27.1279 160.979 27.1974 160.917 27.255C160.785 27.373 160.612 27.4354 160.434 27.4287ZM161.14 35.8767H159.793V28.087H161.168L161.14 35.8767ZM162.71 35.5292V34.2035C162.839 34.3236 162.986 34.4224 163.147 34.4961C163.319 34.5796 163.496 34.6529 163.676 34.7155C163.857 34.7794 164.044 34.8254 164.234 34.8527C164.402 34.8844 164.574 34.8997 164.745 34.8984C165.168 34.9283 165.591 34.8361 165.962 34.6332C166.092 34.5468 166.198 34.4294 166.269 34.2919C166.341 34.1544 166.376 34.0013 166.371 33.847C166.373 33.6798 166.328 33.5153 166.241 33.3715C166.139 33.2299 166.013 33.1063 165.869 33.0058C165.693 32.8856 165.507 32.7816 165.312 32.695L164.606 32.375C164.327 32.2378 164.095 32.0915 163.853 31.9544C163.636 31.8205 163.436 31.6608 163.258 31.479C163.089 31.3104 162.953 31.1119 162.859 30.8938C162.754 30.6513 162.703 30.3894 162.71 30.1258C162.708 29.8031 162.798 29.4862 162.97 29.2115C163.133 28.9429 163.359 28.7171 163.63 28.5532C163.916 28.3734 164.23 28.2406 164.559 28.1601C165.505 27.9493 166.491 27.9968 167.412 28.2972V29.559C166.902 29.2298 166.302 29.0638 165.693 29.0835C165.499 29.0837 165.306 29.102 165.117 29.1384C164.936 29.1627 164.763 29.2217 164.606 29.3121C164.458 29.3847 164.331 29.4913 164.234 29.623C164.137 29.7625 164.088 29.9293 164.095 30.0984C164.086 30.2524 164.125 30.4053 164.206 30.5372C164.288 30.672 164.395 30.79 164.522 30.8847C164.683 30.9998 164.854 31.1008 165.033 31.1864L165.739 31.4972C166.005 31.6317 166.262 31.7812 166.51 31.9452C166.746 32.0916 166.961 32.2667 167.152 32.4664C167.341 32.6441 167.489 32.8591 167.588 33.0972C167.7 33.3379 167.754 33.6007 167.746 33.8652C167.756 34.2125 167.672 34.5562 167.505 34.8618C167.342 35.1304 167.116 35.3562 166.845 35.5201C166.558 35.6928 166.244 35.8164 165.916 35.8858C165.549 35.9612 165.175 35.998 164.801 35.9955H164.318C164.122 35.9955 163.937 35.9955 163.723 35.9224C163.527 35.8876 163.335 35.8387 163.147 35.7761C162.991 35.7127 162.844 35.6297 162.71 35.5292ZM166.427 37.175C166.427 37.8698 165.897 38.2172 164.847 38.2172C164.696 38.2274 164.543 38.2274 164.392 38.2172V37.6138H164.782C165.256 37.6138 165.516 37.4675 165.516 37.1658C165.516 36.8641 165.293 36.7727 164.856 36.7727C164.788 36.7661 164.72 36.7661 164.652 36.7727V35.8309H165.405V36.3338C165.674 36.321 165.939 36.3984 166.157 36.5532C166.248 36.6293 166.32 36.7251 166.366 36.8329C166.413 36.9408 166.434 37.0579 166.427 37.175ZM175.644 35.8309H174.222L173.516 33.8287H170.404L169.735 35.7944H168.304L171.258 28.0504H172.727L175.644 35.8309ZM173.163 32.823L172.076 29.7327C172.03 29.5708 171.996 29.4057 171.974 29.239C171.959 29.4077 171.922 29.5737 171.862 29.7327L170.794 32.823H173.163ZM180.968 29.1932H178.032V31.5155H180.745V32.6035H178.032V35.8309H176.731V28.087H180.987V29.1932H180.968ZM191.607 28.1052L188.82 35.8492H187.361L184.573 28.1052H186.004L187.937 33.975C188.006 34.1835 188.056 34.3977 188.086 34.615C188.116 34.3909 188.169 34.1704 188.244 33.9567L190.232 28.087H191.607V28.1052ZM192.137 31.415H198.111C198.078 30.7587 197.785 30.1414 197.294 29.6961C196.778 29.2614 196.114 29.0359 195.435 29.0652C194.641 29.0476 193.862 29.2746 193.205 29.7144V28.535C193.93 28.134 194.753 27.9349 195.584 27.959C196.11 27.9259 196.638 28.0033 197.131 28.1862C197.624 28.3691 198.073 28.6531 198.446 29.0195C198.806 29.4102 199.084 29.8678 199.263 30.3655C199.442 30.8631 199.518 31.3909 199.487 31.9178C199.525 32.9815 199.153 34.0201 198.446 34.8252C198.096 35.2079 197.665 35.5096 197.183 35.7088C196.701 35.908 196.181 35.9996 195.658 35.9772C195.156 36.0031 194.655 35.9123 194.195 35.7122C193.735 35.5121 193.329 35.2082 193.01 34.8252C192.342 33.8155 192.035 32.6156 192.137 31.415ZM198.111 32.4847H193.549C193.532 33.1163 193.746 33.7328 194.153 34.2218C194.353 34.4381 194.599 34.6084 194.874 34.7206C195.149 34.8328 195.445 34.8841 195.742 34.871C196.048 34.8803 196.353 34.8275 196.638 34.7159C196.922 34.6042 197.18 34.436 197.396 34.2218C197.834 33.7434 198.088 33.1284 198.111 32.4847ZM83.0434 50.0207H81.6217L77.9051 44.3338C77.8158 44.1924 77.7351 44.0458 77.6635 43.895C77.6876 44.245 77.6876 44.5963 77.6635 44.9464V50.0207H76.3812V42.2858H77.8958L81.5195 47.8355C81.6304 47.9816 81.7268 48.1377 81.8076 48.3018C81.7864 47.9577 81.7864 47.6127 81.8076 47.2687V42.2858H83.0248V50.0207H83.0434ZM84.4743 45.6138H90.4488C90.4345 45.2862 90.354 44.9646 90.2121 44.6679C90.0701 44.3712 89.8694 44.1054 89.6219 43.8858C89.1076 43.4487 88.4423 43.2228 87.7635 43.255C86.9709 43.2371 86.1921 43.4606 85.5335 43.895V42.7247C86.2561 42.3268 87.0754 42.1308 87.9029 42.1578C88.4294 42.128 88.9564 42.206 89.4506 42.387C89.9448 42.568 90.3955 42.848 90.774 43.2092C91.1336 43.6025 91.4107 44.0618 91.5893 44.5607C91.7679 45.0597 91.8445 45.5885 91.8147 46.1167C91.8491 47.1769 91.4777 48.2113 90.774 49.015C90.4246 49.3976 89.9935 49.6993 89.5115 49.8985C89.0296 50.0977 88.5088 50.1894 87.9865 50.167C87.4839 50.1958 86.9814 50.1063 86.5209 49.906C86.0604 49.7057 85.655 49.4002 85.3384 49.015C84.6729 48.0078 84.3687 46.8106 84.4743 45.6138ZM90.4488 46.6835H85.9052C85.8949 47.3156 86.1121 47.931 86.5184 48.4207C86.7195 48.6353 86.966 48.8039 87.2406 48.9145C87.5151 49.0251 87.811 49.075 88.1073 49.0607C88.4113 49.07 88.714 49.018 88.9969 48.908C89.2797 48.7979 89.5367 48.6321 89.7519 48.4207C90.1836 47.9397 90.4302 47.325 90.4488 46.6835ZM96.5256 50.1487C95.9973 50.1572 95.4727 50.0608 94.9831 49.8652C94.5328 49.6839 94.1272 49.4095 93.7938 49.0607C93.4673 48.7022 93.212 48.2866 93.0412 47.8355C92.8578 47.3248 92.7666 46.7864 92.7717 46.2447C92.7653 45.67 92.8564 45.0984 93.0412 44.5532C93.2052 44.0758 93.4678 43.6369 93.8124 43.2641C94.1493 42.9023 94.5656 42.6209 95.0296 42.4412C95.5417 42.2451 96.0876 42.1488 96.6371 42.1578C97.1531 42.152 97.665 42.2484 98.1423 42.4412C98.5839 42.6286 98.9822 42.9023 99.3131 43.2458C99.6459 43.5996 99.902 44.0165 100.066 44.471C100.248 44.9787 100.34 45.514 100.335 46.0527C100.349 46.7387 100.219 47.4202 99.9542 48.055C99.7289 48.5954 99.3714 49.0728 98.9135 49.4447L101.181 51.063H99.2016L97.7892 49.9932L97.2131 50.1212C96.9849 50.1464 96.7551 50.1555 96.5256 50.1487ZM96.5906 43.2915C96.2577 43.2822 95.927 43.3482 95.6242 43.4846C95.3213 43.6209 95.0543 43.8239 94.8438 44.0778C94.6171 44.3472 94.4466 44.6578 94.342 44.9921C94.2215 45.377 94.162 45.7779 94.1655 46.1807C94.1639 46.5743 94.2235 46.9659 94.342 47.3418C94.4412 47.6746 94.6053 47.9851 94.8252 48.2561C95.0303 48.4999 95.2872 48.6965 95.5778 48.8321C95.8666 48.9726 96.1848 49.0446 96.507 49.0424C96.8545 49.0486 97.1995 48.9832 97.5198 48.8504C97.816 48.7277 98.0797 48.5401 98.291 48.3018C98.5118 48.0328 98.6732 47.7214 98.7649 47.3875C98.8847 46.9993 98.9443 46.5955 98.9414 46.1898C98.9504 45.776 98.8972 45.3631 98.7834 44.9647C98.6882 44.634 98.5306 44.3238 98.3189 44.0504C98.1273 43.7954 97.8664 43.5989 97.5662 43.4835C97.2563 43.3592 96.9252 43.2941 96.5906 43.2915ZM106.124 50.0207H101.766V42.2858H103.058V48.9327H106.105V50.0207H106.124ZM107.917 41.5727C107.741 41.5694 107.571 41.5083 107.434 41.399C107.375 41.3417 107.328 41.2734 107.296 41.198C107.264 41.1226 107.248 41.0417 107.248 40.9601C107.248 40.7926 107.315 40.6317 107.434 40.5121C107.566 40.394 107.739 40.3316 107.917 40.3384C108.095 40.3353 108.267 40.3973 108.4 40.5121C108.462 40.569 108.511 40.6386 108.543 40.716C108.575 40.7933 108.59 40.8766 108.586 40.9601C108.589 41.042 108.573 41.1236 108.541 41.1993C108.509 41.275 108.461 41.343 108.4 41.399C108.268 41.5154 108.095 41.5775 107.917 41.5727ZM108.605 50.0207H107.276V42.2858H108.623L108.605 50.0207ZM116.01 42.295L113.427 47.2138V50.0207H112.136V47.2321L109.618 42.2858H111.104L112.647 45.5955C112.709 45.7381 112.762 45.8848 112.805 46.0344C112.85 45.8833 112.909 45.7364 112.981 45.5955L114.598 42.2858H115.992L116.01 42.295ZM122.505 42.295L119.922 47.2138V50.0207H118.621V47.2321L116.103 42.2858H117.599L119.132 45.5955C119.195 45.7389 119.251 45.8854 119.299 46.0344C119.299 45.9247 119.402 45.7692 119.476 45.5955L121.102 42.2858H122.496L122.505 42.295ZM129.102 50.0207H127.718L127.012 48.055H123.917L123.248 50.0207H121.817L124.763 42.2858H126.24L129.102 50.0207ZM126.621 47.0127L125.534 43.8858C125.486 43.7244 125.452 43.5592 125.432 43.3921C125.41 43.5606 125.37 43.7261 125.311 43.8858L124.243 46.9761L126.621 47.0127ZM134.426 43.383H132.168V50.0207H130.868V43.383H128.647V42.295H134.463V43.383H134.426ZM145.372 50.0207H143.941L140.224 44.3338C140.134 44.1943 140.057 44.0475 139.992 43.895C140.037 44.2436 140.052 44.5952 140.038 44.9464V50.0207H138.775V42.2858H140.299L143.922 47.8355C144.08 48.0732 144.173 48.2287 144.21 48.3018C144.174 47.9587 144.158 47.6137 144.164 47.2687V42.2858H145.372V50.0207ZM153.734 50.0207H152.313L151.607 48.055H148.512L147.843 50.0207H146.413L149.358 42.2858H150.835L153.734 50.0207ZM151.253 47.0127L150.166 43.8858C150.118 43.7244 150.084 43.5592 150.064 43.3921C150.041 43.5593 150.003 43.7244 149.953 43.8858L148.875 46.9761L151.253 47.0127ZM160.424 42.8527L156.113 48.9327H160.359V50.0207H154.283V49.4447L158.612 43.383H154.664V42.295H160.471V42.8527H160.424ZM162.292 41.5727C162.118 41.571 161.951 41.5096 161.818 41.399C161.756 41.3435 161.706 41.2757 161.673 41.2001C161.639 41.1244 161.622 41.0426 161.623 40.9601C161.623 40.8763 161.64 40.7932 161.673 40.7162C161.707 40.6391 161.756 40.5697 161.818 40.5121C161.881 40.4535 161.956 40.4079 162.037 40.3781C162.119 40.3482 162.205 40.3347 162.292 40.3384C162.469 40.3353 162.642 40.3973 162.775 40.5121C162.838 40.5686 162.889 40.6378 162.922 40.7152C162.956 40.7925 162.972 40.876 162.97 40.9601C162.971 41.0426 162.954 41.1244 162.92 41.2001C162.887 41.2757 162.837 41.3435 162.775 41.399C162.711 41.4592 162.635 41.5057 162.552 41.5356C162.469 41.5655 162.38 41.5781 162.292 41.5727ZM162.989 50.0207H161.642V42.2858H163.026L162.989 50.0207ZM170.998 50.0207H169.474L168.229 47.9635C168.126 47.7917 168.011 47.6268 167.886 47.4698C167.791 47.3446 167.678 47.2337 167.551 47.1407C167.438 47.0589 167.312 46.9942 167.179 46.9487C167.036 46.901 166.885 46.8793 166.733 46.8847H166.204V50.0207H164.884V42.2858H167.458C167.805 42.2865 168.151 42.3264 168.49 42.4047C168.784 42.4902 169.061 42.6264 169.307 42.807C169.533 42.9784 169.717 43.197 169.846 43.447C169.98 43.7334 170.047 44.0459 170.041 44.3612C170.042 44.6196 169.998 44.8762 169.911 45.1201C169.835 45.3449 169.715 45.5529 169.558 45.7327C169.408 45.9154 169.225 46.0702 169.019 46.1898C168.794 46.3207 168.549 46.4164 168.294 46.4732C168.427 46.5497 168.551 46.6385 168.666 46.7384C168.772 46.8321 168.872 46.9329 168.963 47.0401C169.069 47.148 169.165 47.2642 169.251 47.3875C169.354 47.5155 169.447 47.671 169.558 47.8264L170.998 50.0207ZM166.222 43.3372V45.8424H167.309C167.502 45.8462 167.695 45.8153 167.876 45.751C168.044 45.6972 168.196 45.6065 168.322 45.4858C168.454 45.3693 168.553 45.2213 168.61 45.0561C168.683 44.882 168.721 44.6957 168.722 44.5075C168.74 44.3386 168.717 44.1679 168.656 44.0091C168.594 43.8504 168.496 43.7079 168.369 43.5932C168.078 43.369 167.715 43.2553 167.347 43.2732H166.222V43.3372ZM176.267 50.0207H171.909V42.2858H173.247V48.9327H176.295V50.0207H176.267ZM178.051 41.5727C177.874 41.5694 177.704 41.5083 177.567 41.399C177.505 41.3435 177.456 41.2757 177.422 41.2001C177.389 41.1244 177.372 41.0426 177.372 40.9601C177.372 40.8763 177.389 40.7932 177.423 40.7162C177.456 40.6391 177.506 40.5697 177.567 40.5121C177.699 40.394 177.873 40.3316 178.051 40.3384C178.228 40.3353 178.4 40.3973 178.534 40.5121C178.595 40.5701 178.642 40.6399 178.674 40.717C178.706 40.7941 178.722 40.8768 178.72 40.9601C178.72 41.0417 178.704 41.1226 178.672 41.198C178.64 41.2734 178.593 41.3417 178.534 41.399C178.47 41.4592 178.394 41.5057 178.311 41.5356C178.228 41.5655 178.139 41.5781 178.051 41.5727ZM178.738 50.0207H177.391V42.2858H178.738V50.0207ZM186.162 42.295L183.579 47.2138V50.0207H182.278V47.2321L179.751 42.2858H181.247L182.78 45.5955C182.843 45.7389 182.899 45.8854 182.947 46.0344C182.947 45.9247 183.05 45.7692 183.124 45.5955L184.75 42.2858H186.144L186.162 42.295ZM187.807 41.5727C187.633 41.571 187.465 41.5096 187.333 41.399C187.271 41.3435 187.221 41.2757 187.188 41.2001C187.154 41.1244 187.137 41.0426 187.138 40.9601C187.138 40.8763 187.155 40.7932 187.188 40.7162C187.222 40.6391 187.271 40.5697 187.333 40.5121C187.396 40.4535 187.471 40.4079 187.552 40.3781C187.633 40.3482 187.72 40.3347 187.807 40.3384C187.984 40.3353 188.156 40.3973 188.29 40.5121C188.353 40.5686 188.404 40.6378 188.437 40.7152C188.471 40.7925 188.487 40.876 188.485 40.9601C188.486 41.0426 188.469 41.1244 188.435 41.2001C188.402 41.2757 188.352 41.3435 188.29 41.399C188.158 41.517 187.985 41.5794 187.807 41.5727ZM188.494 50.0207H187.184V42.2858H188.522L188.494 50.0207Z" fill="#0040C1"/>
</g>
</svg>
