<svg width="1440" height="800" viewBox="0 0 1440 800" fill="none" xmlns="http://www.w3.org/2000/svg">
<g clip-path="url(#clip0_5528_10406)">
<rect width="1440" height="800" fill="url(#paint0_radial_5528_10406)"/>
<g opacity="0.4">
<path d="M1604.5 703.714C1378.5 723.714 1102.13 729.26 900.507 527.716C612.104 239.43 307.963 159.928 -20 232.214" stroke="url(#paint1_linear_5528_10406)" stroke-width="72" stroke-linecap="round"/>
<path d="M1604.5 479.714C1378.5 499.714 1102.13 505.26 900.507 303.716C612.104 15.4305 307.963 -64.0719 -20 8.21362" stroke="url(#paint2_linear_5528_10406)" stroke-width="72" stroke-linecap="round"/>
<path d="M-17.4171 136.814L-29.1358 139.397L-34.3016 115.96L-22.5829 113.377L-17.4171 136.814ZM-22.5829 113.377C-10.6014 110.736 1.35168 108.295 13.2767 106.057L17.7038 129.645C6.03042 131.836 -5.67639 134.227 -17.4171 136.814L-22.5829 113.377ZM85.643 94.9482C110.095 92.0469 134.429 90.0403 158.646 88.9545L159.721 112.93C136.107 113.989 112.358 115.947 88.4709 118.781L85.643 94.9482ZM231.979 88.5192C256.489 89.3454 280.876 91.1604 305.143 93.991L302.363 117.829C278.761 115.076 255.032 113.31 231.171 112.506L231.979 88.5192ZM377.618 105.562C401.483 110.418 425.227 116.301 448.852 123.235L442.093 146.263C419.119 139.52 396.034 133.801 372.833 129.08L377.618 105.562ZM518.353 146.823C540.889 155.523 563.313 165.22 585.628 175.935L575.239 197.57C553.488 187.125 531.646 177.681 509.71 169.212L518.353 146.823ZM650.447 210.117C671.269 222.095 691.994 234.993 712.624 248.828L699.257 268.761C679.071 255.224 658.813 242.618 638.48 230.921L650.447 210.117ZM772.063 291.495C791.044 306.028 809.944 321.381 828.768 337.569L813.119 355.766C794.629 339.865 776.081 324.798 757.473 310.551L772.063 291.495ZM882.873 386.609C891.595 394.924 900.301 403.424 908.991 412.111L892.024 429.085C883.466 420.53 874.895 412.162 866.313 403.98L882.873 386.609Z" fill="url(#paint3_linear_5528_10406)"/>
</g>
<path d="M1410.07 231.57L1410.07 109.93L1288.43 109.93L1202.5 24.0001L1116.57 109.93L994.93 109.93L994.93 231.57L909 317.5L994.93 403.43L994.93 525.07L1116.57 525.07L1202.5 611L1288.43 525.07L1410.07 525.07L1410.07 403.43L1496 317.5L1410.07 231.57ZM1013.84 261.168C1019.18 263.077 1024.34 264.987 1029.68 267.087C1041.71 260.404 1053.17 252.957 1064.06 244.746C1052.6 239.399 1040.95 234.625 1029.3 230.233L1029.3 144.303L1110.27 144.303C1115.04 157.288 1120.58 170.273 1126.69 182.685C1134.9 171.991 1142.35 160.534 1149.03 148.886C1146.74 143.539 1144.64 138.001 1142.54 132.654L1190.28 84.9151C1158.77 192.233 1074.94 276.062 967.624 307.379L1013.84 261.168ZM979.463 339.651C1097.28 304.515 1189.32 211.71 1223.31 93.3172L1259.21 129.217C1218.73 243.6 1129.17 333.922 1015.17 375.36L979.463 339.651ZM1389.83 375.36C1383.14 373.068 1376.65 370.586 1369.97 367.913C1357.94 374.596 1346.48 382.043 1335.6 390.254C1348.77 396.365 1362.14 401.903 1375.7 406.868L1375.7 491.079L1290.91 491.079C1267.81 429.21 1231.33 373.259 1183.79 327.239C1175.38 335.068 1166.6 342.515 1157.63 349.581C1203.26 392.928 1238.21 446.205 1259.79 505.401L1223.89 541.11C1204.98 477.712 1168.89 420.616 1119.82 376.315C1109.7 382.807 1099.19 388.918 1088.5 394.455C1137.38 435.702 1173.09 490.316 1191.23 551.613L1141.2 501.582C1143.3 495.853 1145.4 490.316 1147.89 484.778C1141.01 473.129 1133.56 462.054 1125.16 451.551C1119.05 464.345 1113.51 477.521 1108.55 490.888L1028.92 490.888L1028.92 406.868C1150.37 361.993 1245.85 265.942 1290.15 144.303L1375.51 144.303L1375.51 226.223C1312.3 248.756 1255.01 285.228 1208.04 333.158C1215.87 341.561 1223.51 350.154 1230.57 359.129C1274.49 313.681 1328.34 279.309 1387.92 258.304L1424.01 294.394C1360.23 312.535 1302.75 347.862 1257.69 396.365C1264.18 406.295 1270.29 416.606 1276.02 427.109C1318.98 377.651 1375.89 342.324 1439.1 325.52L1389.83 375.36Z" fill="#E7EEFF" fill-opacity="0.6"/>
</g>
<defs>
<radialGradient id="paint0_radial_5528_10406" cx="0" cy="0" r="1" gradientUnits="userSpaceOnUse" gradientTransform="translate(720 400) rotate(90) scale(667.816 1202.07)">
<stop stop-color="#CADBFF"/>
<stop offset="1" stop-color="white" stop-opacity="0"/>
</radialGradient>
<linearGradient id="paint1_linear_5528_10406" x1="1328.43" y1="814.3" x2="235.441" y2="193.55" gradientUnits="userSpaceOnUse">
<stop stop-color="#EFF4FF"/>
<stop offset="1" stop-color="#EBF1FF"/>
</linearGradient>
<linearGradient id="paint2_linear_5528_10406" x1="1328.43" y1="590.3" x2="235.441" y2="-30.45" gradientUnits="userSpaceOnUse">
<stop stop-color="#EFF4FF"/>
<stop offset="1" stop-color="#EBF1FF"/>
</linearGradient>
<linearGradient id="paint3_linear_5528_10406" x1="1328.43" y1="707.182" x2="235.442" y2="86.4322" gradientUnits="userSpaceOnUse">
<stop stop-color="#EFF4FF"/>
<stop offset="1" stop-color="#EBF1FF"/>
</linearGradient>
<clipPath id="clip0_5528_10406">
<rect width="1440" height="800" fill="white"/>
</clipPath>
</defs>
</svg>
