<svg width="400" height="188" viewBox="0 0 400 188" fill="none" xmlns="http://www.w3.org/2000/svg">
<path opacity="0.5" d="M341.444 -70.5556L341.444 -153.444L258.556 -153.444L200 -212L141.444 -153.444L58.5556 -153.444L58.5556 -70.5556L-3.49691e-05 -12L58.5556 46.5557L58.5556 129.444L141.444 129.444L200 188L258.556 129.444L341.444 129.444L341.444 46.5557L400 -11.9999L341.444 -70.5556ZM71.4379 -50.3864C75.0813 -49.0852 78.5947 -47.784 82.2381 -46.3526C90.4359 -50.907 98.2433 -55.9818 105.66 -61.5771C97.853 -65.2205 89.9154 -68.4736 81.9779 -71.4665L81.9779 -130.022L137.15 -130.022C140.403 -121.174 144.177 -112.325 148.341 -103.867C153.936 -111.154 159.011 -118.962 163.565 -126.899C162.004 -130.543 160.573 -134.316 159.141 -137.96L191.672 -170.491C170.202 -97.3611 113.077 -40.2368 39.9479 -18.8966L71.4379 -50.3864ZM48.0156 3.09432C128.302 -20.8484 191.022 -84.0885 214.184 -164.765L238.647 -140.302C211.061 -62.3578 150.033 -0.809346 72.3487 27.4275L48.0156 3.09432ZM327.651 27.4275C323.097 25.866 318.673 24.1744 314.118 22.3527C305.921 26.907 298.113 31.9818 290.696 37.5771C299.675 41.7411 308.783 45.5147 318.022 48.8979L318.022 106.282L260.247 106.282C244.502 64.1224 219.649 25.9961 187.248 -5.36368C181.522 -0.028609 175.537 5.04622 169.421 9.86079C200.521 39.3989 224.333 75.7034 239.037 116.042L214.574 140.375C201.692 97.1738 177.098 58.2668 143.656 28.0781C136.76 32.5023 129.603 36.6663 122.316 40.4398C155.628 68.5465 179.961 105.762 192.323 147.532L158.23 113.439C159.662 109.535 161.093 105.762 162.785 101.988C158.1 94.0508 153.025 86.5036 147.3 79.3468C143.136 88.0651 139.362 97.0436 135.979 106.152L81.7176 106.152L81.7176 48.8979C164.476 18.3188 229.538 -47.1333 259.727 -130.022L317.892 -130.022L317.892 -74.199C274.821 -58.8444 235.784 -33.9909 203.774 -1.32983C209.109 4.39561 214.314 10.2512 219.128 16.367C249.057 -14.6024 285.752 -38.0247 326.35 -52.3383L350.943 -27.7449C307.482 -15.3832 268.315 8.68968 237.606 41.7411C242.03 48.5075 246.194 55.5342 250.098 62.691C279.375 28.989 318.152 4.91612 361.223 -6.53476L327.651 27.4275Z" fill="#155EEF"/>
</svg>
